<?xml version="1.0" encoding="utf-8"?>
<!-- Generator: Adobe Illustrator 19.1.0, SVG Export Plug-In . SVG Version: 6.00 Build 0)  -->
<svg version="1.1" id="Layer_1" xmlns="http://www.w3.org/2000/svg" xmlns:xlink="http://www.w3.org/1999/xlink" x="0px" y="0px"
	 viewBox="194 -104 1000 1000" style="enable-background:new 194 -104 1000 1000;" xml:space="preserve">
<style type="text/css">
	.st0{fill:#5B595A;}
</style>
<path class="st0" d="M457.1,6.4c-84,0-152.7,68.7-152.7,152.7v473.9c0,84,68.7,152.7,152.7,152.7h473.9c84,0,152.7-68.7,152.7-152.7
	V159.1c0-84-68.7-152.7-152.7-152.7L457.1,6.4L457.1,6.4z M495.5,135c40.3,0,65.1,26.4,65.8,61.2c0,34-25.6,61.2-66.6,61.2H494
	c-39.5,0-65-27.2-65-61.2C428.9,161.4,455.2,135,495.5,135L495.5,135z M842.5,297.4c77.4,0,135.5,50.6,135.5,159.4v203H860.3V470.4
	c0-47.6-17-80.1-59.6-80.1c-32.5,0-51.9,21.9-60.4,43c-3.1,7.6-3.9,18.1-3.9,28.7v197.8H618.7c0,0,1.5-320.9,0-354.1h117.7v50.1
	C752,331.7,780,297.4,842.5,297.4L842.5,297.4z M435.9,305.7h117.7v354.1H435.9V305.7L435.9,305.7z"/>
</svg>
