<?xml version="1.0" encoding="utf-8"?>
<!-- Generator: Adobe Illustrator 18.0.0, SVG Export Plug-In . SVG Version: 6.00 Build 0)  -->
<!DOCTYPE svg PUBLIC "-//W3C//DTD SVG 1.1//EN" "http://www.w3.org/Graphics/SVG/1.1/DTD/svg11.dtd">
<svg version="1.1" id="Capa_1" xmlns="http://www.w3.org/2000/svg" xmlns:xlink="http://www.w3.org/1999/xlink" x="0px" y="0px"
	 viewBox="0 0 800 800" enable-background="new 0 0 800 800" xml:space="preserve">
<path fill="#5A5859" d="M400,160c-132.8,0-240,107.2-240,240c0,97.6,59.2,182.4,144,219.2c0-16,0-36.8,4.8-54.4
	c4.8-19.2,30.4-131.2,30.4-131.2s-8-16-8-38.4c0-35.2,20.8-62.4,46.4-62.4c22.4,0,32,16,32,36.8c0,22.4-14.4,54.4-20.8,84.8
	c-6.4,25.6,12.8,46.4,38.4,46.4c44.8,0,76.8-57.6,76.8-128c0-52.8-35.2-91.2-99.2-91.2c-73.6,0-118.4,54.4-118.4,115.2
	c0,20.8,6.4,35.2,16,46.4c4.8,4.8,4.8,8,3.2,12.8c-1.6,4.8-3.2,14.4-4.8,19.2c-1.6,6.4-6.4,8-12.8,6.4
	c-33.6-14.4-49.6-51.2-49.6-91.2c0-68.8,57.6-150.4,171.2-150.4c91.2,0,152,65.6,152,137.6c0,94.4-52.8,164.8-129.6,164.8
	c-25.6,0-49.6-14.4-59.2-30.4c0,0-14.4,56-17.6,65.6c-4.8,19.2-14.4,36.8-24,51.2c20.8,6.4,44.8,9.6,68.8,9.6
	c132.8,0,240-107.2,240-240C640,267.2,532.8,160,400,160"/>
</svg>
