<?xml version="1.0" encoding="utf-8"?>
<!-- Generator: Adobe Illustrator 18.0.0, SVG Export Plug-In . SVG Version: 6.00 Build 0)  -->
<!DOCTYPE svg PUBLIC "-//W3C//DTD SVG 1.1//EN" "http://www.w3.org/Graphics/SVG/1.1/DTD/svg11.dtd">
<svg version="1.1" id="Capa_1" xmlns="http://www.w3.org/2000/svg" xmlns:xlink="http://www.w3.org/1999/xlink" x="0px" y="0px"
	 viewBox="0 0 800 800" enable-background="new 0 0 800 800" xml:space="preserve">
<path fill="#5A5859" d="M696,217.6c-22.4,9.6-44.8,16-68.8,19.2c25.6-14.4,44.8-38.4,52.8-67.2c-24,14.4-49.6,24-76.8,28.8
	c-22.4-24-52.8-38.4-88-38.4c-67.2,0-121.6,54.4-121.6,121.6c0,9.6,1.6,19.2,3.2,27.2C294.4,304,206.4,256,145.6,182.4
	c-11.2,17.6-16,38.4-16,60.8c0,41.6,20.8,78.4,54.4,100.8c-19.2,0-38.4-6.4-54.4-14.4v1.6c0,59.2,41.6,107.2,97.6,118.4
	c-9.6,3.2-20.8,4.8-32,4.8c-8,0-16,0-22.4-1.6c16,48,60.8,83.2,113.6,84.8c-41.6,32-94.4,51.2-150.4,51.2c-9.6,0-19.2,0-28.8-1.6
	c54.4,33.6,116.8,54.4,185.6,54.4c222.4,0,344-184,344-344c0-4.8,0-11.2,0-16C659.2,262.4,678.4,241.6,696,217.6"/>
</svg>
