<?xml version="1.0" encoding="utf-8"?>
<!-- Generator: Adobe Illustrator 19.1.0, SVG Export Plug-In . SVG Version: 6.00 Build 0)  -->
<svg version="1.1" id="layer_1" xmlns="http://www.w3.org/2000/svg" xmlns:xlink="http://www.w3.org/1999/xlink" x="0px" y="0px"
	 viewBox="0 0 192.9 165" style="enable-background:new 0 0 192.9 165;" xml:space="preserve">
<style type="text/css">
	.st0{fill:#5B595A;}
</style>
<g id="background">
</g>
<g id="we_chat">
</g>
<g id="bubbles">
	<g>
		<path class="st0" d="M108.4,17.9C89.9,7.5,66.9,6,47,13.1C34,17.9,22.1,26.6,14.8,38.5C8.2,49.2,5.7,62.6,8.9,74.9
			c3.2,13.6,12.7,25.1,24.2,32.7c-2.2,6.3-4.3,12.6-6.3,18.9c7.3-3.8,14.5-7.7,21.7-11.6c8.7,2.8,17.9,4.1,27.1,3.8
			c-2.4-7-3-14.6-1.9-21.9c1.7-10.2,7.2-19.4,14.8-26.3c12.8-12,30.9-17,48.1-15.8C133.5,39,122.4,25.6,108.4,17.9z M58.9,46.6
			c-1.3,6.2-9.6,9.2-14.4,5c-5.6-4-4-13.8,2.6-15.8C53.5,33.4,60.8,39.9,58.9,46.6z M103.8,44.8c0.1,7.1-9.4,11.6-14.8,6.7
			c-5.5-4-4-13.6,2.5-15.6C97.4,33.6,104.2,38.5,103.8,44.8z"/>
		<path class="st0" d="M181.9,88c-4.5-10.2-13-18.3-22.9-23.3c-17.4-8.8-39.1-8.8-56.5,0.2c-12.1,6.2-22.2,17.3-25,30.8
			c-2.4,10-0.2,20.7,5,29.4c7.9,13,22.1,21.3,36.8,24c10.7,2.2,21.8,0.9,32.1-2.1c6.2,2.4,11.8,6.3,17.8,9.2
			c-1.5-5.2-3.2-10.4-5-15.6c6.8-4.8,12.9-10.8,16.6-18.4C186.5,111.9,186.8,98.8,181.9,88z M121.3,91.9c-1.5,4.8-8.6,6.3-12,2.6
			c-3.7-3.4-2.3-10.5,2.6-12C117.4,80.2,123.6,86.5,121.3,91.9z M156.8,92.6c-1.9,4.3-8.4,5.3-11.6,2c-1.6-1.4-1.9-3.5-2.6-5.4
			c0.8-3.4,3.1-6.9,6.9-7.1C154.9,81.4,159.6,87.9,156.8,92.6z"/>
	</g>
</g>
</svg>
