<?xml version="1.0" encoding="utf-8"?>
<!-- Generator: Adobe Illustrator 18.0.0, SVG Export Plug-In . SVG Version: 6.00 Build 0)  -->
<!DOCTYPE svg PUBLIC "-//W3C//DTD SVG 1.1//EN" "http://www.w3.org/Graphics/SVG/1.1/DTD/svg11.dtd">
<svg version="1.1" id="Capa_1" xmlns="http://www.w3.org/2000/svg" xmlns:xlink="http://www.w3.org/1999/xlink" x="0px" y="0px"
	 viewBox="0 0 800 800" enable-background="new 0 0 800 800" xml:space="preserve">
<g>
	<path fill="#5A5859" d="M352,604.8c-97.6,9.6-182.4-35.2-188.8-99.2c-6.4-64,68.8-124.8,166.4-134.4s182.4,35.2,188.8,99.2
		C524.8,534.4,451.2,595.2,352,604.8 M548.8,390.4c-8-3.2-14.4-4.8-9.6-14.4c9.6-24,11.2-44.8,0-59.2c-19.2-27.2-72-25.6-132.8,0
		c0,0-19.2,8-14.4-6.4c9.6-30.4,8-54.4-6.4-68.8c-32-32-120,1.6-195.2,75.2C136,371.2,104,432,104,483.2
		C104,580.8,230.4,640,352,640c161.6,0,268.8-94.4,268.8-168C620.8,427.2,582.4,401.6,548.8,390.4"/>
	<path fill="#5A5859" d="M656,211.2c-38.4-43.2-96-59.2-148.8-48l0,0c-12.8,3.2-20.8,14.4-17.6,27.2c3.2,12.8,14.4,20.8,27.2,17.6
		c38.4-8,78.4,3.2,105.6,33.6c27.2,30.4,35.2,72,24,108.8l0,0c-3.2,11.2,3.2,24,14.4,28.8c11.2,3.2,24-3.2,28.8-14.4l0,0
		C705.6,313.6,694.4,254.4,656,211.2"/>
	<path fill="#5A5859" d="M596.8,265.6c-19.2-20.8-46.4-28.8-72-24c-11.2,1.6-17.6,12.8-14.4,22.4c1.6,11.2,12.8,17.6,22.4,14.4l0,0
		c12.8-3.2,25.6,1.6,35.2,11.2c9.6,9.6,11.2,24,8,36.8l0,0c-3.2,9.6,1.6,20.8,12.8,24c9.6,3.2,20.8-1.6,24-12.8
		C620.8,315.2,614.4,286.4,596.8,265.6"/>
	<path fill="#5A5859" d="M358.4,488c-3.2,6.4-11.2,8-17.6,6.4c-4.8-1.6-8-9.6-4.8-14.4c3.2-6.4,11.2-8,16-6.4
		C360,475.2,361.6,481.6,358.4,488 M326.4,528c-9.6,14.4-30.4,22.4-44.8,14.4c-14.4-6.4-19.2-24-9.6-40
		c9.6-14.4,28.8-20.8,44.8-14.4C331.2,496,336,513.6,326.4,528 M363.2,420.8c-46.4-12.8-99.2,11.2-120,52.8s0,88,46.4,104
		c49.6,16,107.2-8,126.4-54.4C435.2,480,411.2,433.6,363.2,420.8"/>
</g>
</svg>
