<?xml version="1.0" encoding="utf-8"?>
<!-- Generator: Adobe Illustrator 18.0.0, SVG Export Plug-In . SVG Version: 6.00 Build 0)  -->
<!DOCTYPE svg PUBLIC "-//W3C//DTD SVG 1.1//EN" "http://www.w3.org/Graphics/SVG/1.1/DTD/svg11.dtd">
<svg version="1.1" id="Layer_1" xmlns="http://www.w3.org/2000/svg" xmlns:xlink="http://www.w3.org/1999/xlink" x="0px" y="0px"
	 viewBox="0 0 200 200" enable-background="new 0 0 200 200" xml:space="preserve">
<rect x="-1.1" y="-1.3" fill="#5B595B" width="203.2" height="201.3"/>
<g>
	<rect x="38.1" y="75.9" fill="#FFFFFF" width="27.5" height="82.6"/>
	<path fill="#FFFFFF" d="M52,36.1c-9.4,0-15.5,6.2-15.5,14.3c0,7.9,6,14.3,15.2,14.3h0.2c9.6,0,15.5-6.3,15.5-14.3
		C67.2,42.2,61.4,36.1,52,36.1z"/>
	<path fill="#FFFFFF" d="M132.9,73.9c-14.6,0-21.1,8-24.8,13.7v0.3H108c0.1-0.1,0.1-0.2,0.2-0.3V75.9H80.7c0.4,7.8,0,82.6,0,82.6
		h27.5v-46.1c0-2.5,0.2-4.9,0.9-6.7c2-4.9,6.5-10,14.1-10c9.9,0,13.9,7.6,13.9,18.7v44.2h27.5v-47.4C164.6,85.8,151,73.9,132.9,73.9
		z"/>
</g>
</svg>
