<?xml version="1.0" encoding="utf-8"?>
<!-- Generator: Adobe Illustrator 18.0.0, SVG Export Plug-In . SVG Version: 6.00 Build 0)  -->
<!DOCTYPE svg PUBLIC "-//W3C//DTD SVG 1.1//EN" "http://www.w3.org/Graphics/SVG/1.1/DTD/svg11.dtd">
<svg version="1.1" id="Isolation_Mode" xmlns="http://www.w3.org/2000/svg" xmlns:xlink="http://www.w3.org/1999/xlink" x="0px"
	 y="0px" viewBox="0 0 640 420" enable-background="new 0 0 640 420" xml:space="preserve">
<path fill="#EDEDED" d="M349.3,179.7l0.7,0.5l0.7,0.3l0,0.1c-0.1,0.2-0.2,0.5-0.5,0.4c-0.3,0.1-0.6-0.2-0.9-0.3
	c-0.2-0.1-0.5,0.1-0.7,0.2c-0.2-0.2-0.4-0.1-0.7,0c-0.1,0.2-0.3,0.4-0.6,0.6l-0.7,0.3c-0.2,0.1-0.3,0.3-0.5,0.4
	c-0.2,0.1-0.3,0.4-0.5,0.4c0-0.2,0.2-0.3,0.1-0.5c0.1-0.1,0.2-0.1,0.3-0.2l-0.1-0.3c0,0,0-0.1-0.1-0.1c-0.1,0-0.1,0-0.2,0
	c-0.2-0.1-0.1-0.2-0.1-0.3l0.1,0c-0.1-0.1-0.1-0.1-0.2-0.1c-0.2,0.2-1,0.2-1.2,0.1c-0.3-0.1-0.9-0.1-1.3-0.2c-0.4,0-0.8,0.7-1.1,1
	c-0.3,0.4-0.5,0.7-0.7,0.9c-0.1,0.2-0.6-1.3-0.8-1.3c-0.2,0-0.3,0.5-0.5,0.9c-0.2,0.4,0,1.5-0.1,1.8c0,0.2,1,1.4,1.2,1.5
	c0.2,0.1-0.4,0.6-0.5,0.5c-0.2,0-0.6-0.7-1-0.8c-0.4-0.2-0.5-0.9-0.5-0.9l-0.4,1.1l-1.2,0.2c0,0-0.4-0.4-0.5-0.5
	c-0.1-0.1-0.7-0.5-1-0.5c-0.3,0-0.6,0.4-0.7,0.4c-0.1,0-0.2-0.2-0.3-0.4c0,0,0.3,1,0.5,1c0.2,0,0.5,0.8,0.5,0.8s-0.6-0.1-0.8-0.3
	c-0.2-0.2-0.7-1.6-0.7-1.6l0.6-1.5c0,0-0.1-1-0.3-1.2c-0.2-0.2-0.1-1.3,0.1-1.9c0.2-0.6-0.5-1.2-0.5-1.4c-0.1-0.2-2.6-1.4-3.4-1.8
	c-0.8-0.3-1.6-1.2-2.5-1.5c-0.9-0.3-0.7-1.4-1.3-2.1c-0.6-0.7-1.8-1.9-2.1-2c-0.3-0.1-1.6-0.2-1.9-0.1c-0.3,0.1-1.2,0.4-1.7,0.7
	c-0.5,0.3,0.2,1.4,0.5,1.9c0.3,0.5,0.8,0.9,1.3,1.4c0.5,0.5,1.3,0.4,1.9,0.9c0.6,0.5-0.1,1.1-0.1,1.1s1.2,1,2.1,1.6
	c0.9,0.6,1.3,0.8,1.9,1.2c0.6,0.3,0.4,0.8,1.1,1.2c0.6,0.4,0.9-0.2,1.4,0.4c0.4,0.6-0.8,0.5-1.3,0.6c-0.5,0.1-0.6,0.7-0.6,0.7
	s0.2,1.5,0,2.3c-0.3,0.8-0.9,0.6-0.9,0.6s-0.4-0.1-0.4-0.6c0-0.5,0.5-1,0.5-1.5c0-0.5-1.7-0.7-2-1.5c-0.3-0.8-1.6-1.4-2.1-1.5
	c-0.5-0.1-1.8-0.8-2.1-1.2c-0.3-0.4-1.6-1.2-2.2-1.7c-0.6-0.5-1.4-1.1-1.8-1.2c-0.4-0.1-0.2-1.2-0.5-1.5c-0.2-0.4-0.2-0.9-1.4-1
	c-1.2-0.1-1.9,1-2.4,1.3c-0.5,0.3-1.7,1.4-2.2,1.5c-0.5,0.1-1.6-0.8-3.9-1.2c-2.2-0.4-1.6,0.1-1.6,0.1s0.3,2.7,0.1,3.5
	c-0.2,0.8-0.7,0.9-2,0.9c-1.3,0-1.6,0.8-2.1,1.1c-0.5,0.3-1.3,1.6-1.3,2.7c0,1.1,0.5,1.5,0.5,1.5l-1.1,1.3c0,0-1.2,1-1.5,1.2
	c-0.3,0.2-1.2,0.9-1.2,0.9l-4.7,0.2c0,0-0.9,1.4-1.5,1.3c-0.6-0.1-0.8-1.5-1.3-1.6c-0.5-0.1-0.6,0.1-2.7,0.1c-2.1,0-1.4-1.4-1.2-1.8
	c0.2-0.4-0.4-1.1-0.9-1.7c-0.5-0.6,0.5-1.7,0.9-2.2c0.4-0.5,0-0.9,0-3.2c0-2.3-0.4-2.4-0.4-3.1c0-0.7,1.5-1.5,2.6-1.3
	c1.1,0.2,2.3,0.2,3.9,0.1c1.6-0.1,3.9,0.4,4.5,0.4c0.6,0,1.7-0.2,2.1-2.3c0.4-2.1,0.4-1.5,0.3-2.5c-0.1-1-0.8-5.9-0.9-6.9
	c-0.1-1-0.8-0.8,1.2-1.6c2-0.8,3.4-0.3,4.1-1.7c0.7-1.4,0.7-0.9,1.8-1.4c1.1-0.5,2.8-2,3.4-3.4c0.6-1.4,2.4-1.7,3-1.8
	c0.6-0.1,2.7-1.1,3.6-1.9c0.9-0.8,0.3-1.8,0.2-2.3c-0.1-0.5-0.9-1-1-2.2c-0.1-1.2,0.6-2,1.6-2.5c1-0.5,1.5-1.5,2.6-1.8
	c1.1-0.3-0.5,1.5-0.7,1.8c-0.2,0.3-0.2,2.3-0.5,2.8c-0.3,0.5-0.1,2.4,0.6,3.4c0.7,1,1.3,1.1,1.8,1.2c0.5,0.1,2-0.5,2.7-0.1
	c0.7,0.4,1.4,0.7,2.6,0.4c1.2-0.3,1.5-0.5,3-1.4c1.5-0.9,2.8-0.6,3.4-0.6c0.6,0,1.4,0.7,2.2,1c0.8,0.3,2.2-1.6,2.5-1.7
	c0.3-0.1-0.2-3.1,0.1-4.5c0.3-1.4,1.2-1.2,2.3-1.6c1.1-0.4,1.7,1.1,2.8,1c1.1-0.1,0.4-0.8,0.5-2.5c0.1-1.7-0.7-0.7-1.1-0.7
	c-0.4,0-2.8,0.7-3-0.2c-0.2-0.9,2.7-1.3,2.7-1.3s2.2-0.7,2.7-0.9c0.5-0.2,2.6,0.3,3.3,0.4c0.7,0.1,1.6-0.6,2.3-0.8
	c0.7-0.2,0.7-1.5,0.7-1.5s-1.6-0.7-2.6-0.7c-1,0-2.9,0-3.5,0.4c-0.5,0.4-1.5,1.6-3.8,1.1c-2.3-0.5-1-1-2.6-1.9
	c-1.6-0.9,0-1.5,0.3-2.3c0.3-0.8-0.9-1.6-1.1-2.7c-0.2-1.1,1.7-1.5,2.1-2.2c0.4-0.7,0.1-0.8,1-1.5c0.9-0.7,2-1.6,2.7-1.7
	c0.7-0.1,1.5-0.4,1.7-1.3c0.2-0.9-1.5-2.3-2.2-2.3c-0.7,0-1.7,0.7-2.1,0.8c-0.4,0.1-3.1,0.7-3.2,2.3c-0.1,1.6,0.9,1.3,0.7,2.1
	c-0.2,0.8-2.7,0.9-3.1,1.1c-0.4,0.2-3.2,2.5-3.2,2.5s0,0.6-0.8,2c-0.8,1.4,0.2,3.2,0.2,3.2s2,1.2,2.2,1.5c0.2,0.3-0.3,1.1-0.9,1.5
	c-0.6,0.4-2.1-0.3-3-0.4c-0.9-0.1,1.4,1.1,2,1.4c0.6,0.3-1.5,0.9-1.3,1.8c0.2,0.9-0.3,1-0.3,2.2c0,1.2,0.7,2.3-1.3,2.9
	c-1.3,0.4-1.5,0.5-1.8,0.6c-0.1,0.1-0.3,0.2-0.6,0.4c-0.8,0.6-1.1,0.8-2.2,0.5c-1.1-0.3-0.2-0.6-0.9-2c-0.7-1.4-0.7-1.1-1.6-2.6
	c-0.9-1.5,0-1.3-0.3-2.9c-0.3-1.6-1.2-1.8-2.3-1c-1.1,0.8-2.2,1.9-4.5,2.6c-2.2,0.7-1.8,0.2-2.4-0.5c-0.6-0.7-1.1-3.6-1.3-5.5
	c-0.2-1.8,0.2-3.8,0.4-4.8c0.2-1,3.7-2,4.8-2.3c1-0.3,1.9-2,3.3-2.9c1.4-0.9,3.6-2.3,3.9-4.3c0.3-2,3-4.1,3-5.2c0-1,2.8-1,3.7-2.2
	c0.9-1.2,3.4-2.6,3.7-3.3c0.3-0.7,2.4-0.7,3.4-0.8c1-0.1,1-0.4,1.2-1.3c0.2-0.9,2.9,0.2,2.9,0.2s1.1-1,2-1.3
	c0.9-0.3,1.1-0.6,1.5-0.7c0.4-0.1,1.5-0.3,2-0.1c0.5,0.2,0.7,0.4,0.9-0.1c0.2-0.5,1-0.7,1.8-0.6c0.8,0.1,0.1,1.1,0.1,1.1l1.6-0.2
	c0,0,2.5,0.3,3.8,0.8c1.2,0.5-0.8,0.6-1.4,0.6c-0.6,0-2,0.7-2,0.7s2.2,1.1,2.5,1.3c0.3,0.2,1.9,0.2,2.7,0.2c0.8,0,1.6,0.4,2.8,0.8
	c1.2,0.4,1.2,0.6,4.9,1.4c3.7,0.8,1.8,1.2,2.5,1.4c0.7,0.2,2.5,1.2,3.3,1.5c0.8,0.3,1.1,1.3,1.6,2.3c0.5,1-0.7,1.6-2.2,2.1
	c-1.5,0.5-2.4,1.1-3.5,0.7c-1.1-0.4-0.6-0.4-1.8-0.6c-1.2-0.2-8-2.5-8-2.5s3.9,3.1,4.2,3.3c0.3,0.2-0.3,1.6-0.3,1.6l0.2,2.4
	c0,0,1.2,0.8,1.7,0.8c0.5,0,0.1,1.1,0.4,1.3c0.3,0.2,2.3-0.1,4-0.6c1.7-0.5-0.7-0.8-1.7-0.9c-1-0.1-1.9-1.6-0.8-2
	c1.1-0.4,4.4,1.6,4.7,1.7c0.3,0.1,2.1-0.8,1.7-0.8c-0.4,0-0.7-2.2-0.7-2.2s1.7-1.9,2.1-2.2c0.4-0.3,1.8,0.4,1.8,0.4s2.2,0.2,2.9,0
	c0.7-0.2,0.3-1.5,0.2-2.3c-0.1-0.8-0.8-1-0.9-1.5c-0.1-0.5,0.5-2,1.1-2.2c0.6-0.2,2,0,2,0l1.2,1.7h-2c-0.7,0-0.1,1.3-0.1,1.3
	s1.3,1.6,2.2,1.3c0.9-0.3,1.8-1.3,1.8-1.9c0-0.6,2.1-0.8,2.6-0.9c0.5-0.1,2.1-0.7,3.1-1.3c1-0.6,1,0,1.8,0c0.8,0,0.8-1,0.8-1
	s0.9-0.4,1.8-0.4c0.9,0-0.3,1.1-0.5,1.4c-0.2,0.3,0.8,0.1,1.7,0.1c0.9,0,0.9-0.4,1.4-0.8c0.5-0.4,1.3-0.4,2.1-0.1
	c0.8,0.3,0.9,0.2,2-0.4c1.1-0.6,2.2-0.3,2.5-0.3c0.3,0,0.1,1.7,0.6,1.7c0.5,0,0.7-0.1,0.7-1.2c0-1.1,0.8-0.4,1.7-0.7
	c0.9-0.3-0.6-0.2-1-1.2c-0.4-1,0.2-1,0.4-1.8c0.2-0.8,1.6,0.1,3.3,0.4c1.7,0.3,3.3,0.9,4.7,1.8c1.4,0.9,2,1.2,3,1.5
	c1,0.3,1.9,0.7,2.4,0.5c0.5-0.2,1.2-0.6,0-0.9c-1.2-0.3-0.8-1.8-1.3-2.1c-0.5-0.3-1.6-0.7-1.6-0.7s0.7-1.1,0.7-1.6
	c0-0.5-0.1-1.5-0.1-1.5s-1.6-0.8-1-1.3c0.6-0.5,2.8-1.3,3.1-1.4c0.3-0.1,1.3-3.5,1.3-3.5s0.9-1,1.4-1c0.5,0,3.3,0.4,3.3,0.4
	s1.1-0.2,1.1,1.5c0,1.7-0.9,1.9-1.4,2.4c-0.5,0.5,0.7,1.5,1.3,1.7c0.6,0.2-0.2,1.7-0.2,1.7l-0.1,5c0,0,0.2,0.7,0.8,0.6
	c0.6-0.1,0.4,1,0.4,1l-0.2,1.9c0,0-1,1.9-1.9,2.1c-0.9,0.2-3.1,1-3.1,1l0.8,0.6l2.3,0.9c0,0,2.3-2.1,3.3-3.4c1-1.3,1.1-2.2,0.6-2.6
	s-0.4-1.5,0.5-1.8c0.9-0.3,1.1-0.5,2.8-0.2c1.7,0.3,1.3,2.3,1.3,2.3s1.3-0.2,1.5-1.3c0.2-1.1-2-1.5-3.6-1.9
	c-1.6-0.4-1.8,0.6-3.5-0.4c-1.7-1,0.5-3.2,0.9-3.7c0.4-0.5-1.5-1.6-1.7-3.3c-0.2-1.7,2.2-1.3,2.7-1.7c0.5-0.4,0.6-2.6,0.6-2.6
	s0.8,1.6,0.8,2.3c0,0.7-0.4,2-0.4,2.3c0,0.3,1.7,0.5,3.2,1.6c1.5,1.1,1.7-0.1,2.4-0.9c0.7-0.8-0.8,0-2.6-0.8
	c-1.8-0.8-1.9-1.5-1.2-1.2c0.7,0.3,2.5-0.1,2.8-0.2c0.3-0.1,0.2-1,0.4-1.3c0.2-0.3,1.6,0.7,2,0.9c0.4,0.2,2.8,1.5,3.8,1.7
	c1,0.2,2.2-0.5,2.2-0.5s-1.8-1.5-2.5-1.6c-0.7-0.1-2-0.2-2-1.5c0-1.3,0.1-2.4,0.5-3.1c0.4-0.7,1.6,0.8,3,0.8c1.4,0,4.9-1.1,6.6-1.1
	c1.8,0,0.5-0.8,0.5-0.8s-0.3-2-0.3-2.9c0-0.9,2.3-1.1,4.8-1.7c2.5-0.6,3.1-1,3.6-1.2s2.5-0.3,4.1-0.5c1.6-0.2,1.9-1.1,1.9-1.1
	s1.6,0.8,3,0.8c1.4,0,2.8-0.9,2.8-0.9s0.6-0.6,1.7-0.4c1.1,0.2,1.5-0.2,1.9-0.4c0.4-0.2-0.1-1.4-0.2-1.8c-0.1-0.4,1.4-1.4,2.9-1.9
	c1.5-0.5,3.4-0.5,3.4-0.5s1.8,0.3,1.7,0.8c-0.1,0.5-2.8,1.7-1.6,1.6c1.2-0.1,1.9,0.3,1.9,0.3l2-0.3c0,0-0.3,1.3,0,1.4
	c0.3,0.1,1.2-0.5,1.2-0.5s2.7,0,3.8,0.3c1.1,0.3,1.4,0,2.4-0.3c1-0.3,0.7,0.3,2.1,1.5c1.4,1.2,1.8,1,2.1,1.8
	c0.3,0.8,0.3,0.8,0.2,1.7c-0.1,0.9-0.7,0.7-2,1.4c-1.3,0.7-2.1,0.9-2.6,1.3c-0.5,0.4-3.5,1-4.1,1.6c-0.6,0.6-1.9,0.9-2.3,1.5
	c-0.4,0.6,2,0.7,2.4,0.5c0.4-0.2,1.2-0.3,1.9-0.6c0.7-0.3,0.3-1.6,0.3-1.6s0.4-0.5,2.4,0.8c2,1.3,3.1,0.3,3.1,0.3s1,1,1.6,1
	c0.6,0,1-0.4,2.6-0.7c1.6-0.3,0.7,0.3,1.9,0.4c1.2,0.1,3.1,0,2.8,0.1c-0.3,0.1-0.3,1.1,0.6,1.4c0.9,0.3,1.9-0.1,3.3-0.2
	c1.4-0.1,2.4,0.9,4,0.6c1.6-0.3,0.1-1.5,0.1-2.5c0-1,1.9,0.2,4.3,0.5c2.4,0.3,3.8,0.2,5.4,1.6c1.5,1.4-0.8,2.7-0.1,3.8
	c0.7,1.1,2,3.7,3.3,3.4c1.3-0.3,2.7-3.1,2.7-3.1s0.7,0.5,1.9,0.8c1.2,0.3,1.4,0.1,2.8-0.2c1.4-0.3,1.3-0.1,2.3,0.2
	c1,0.3,1.8,1.4,2.8,0.7c1-0.7,0.4-0.9,0.8-0.9c0.4,0,1.2,0.3,1.9-0.3c0.7-0.6-0.6-1.1,0.2-1.6c0.8-0.5,1.3-1.2,1.3-1.2
	s2.7-0.1,3.8-0.1c1.1,0,1.6-0.1,2.3-0.3c0.7-0.2,3.6,1,4.3,1c0.7,0,1.7,0.1,2,0c0.3-0.1,0.7,1.3,1.8,2c1.1,0.7,1.4,0.6,2.2,0.6
	c0.8,0,2.4,2,3.3,2.1c0.9,0.1,5.3-0.7,6.9-0.6c1.7,0.1,4.1,0.9,5.3,1.6c1.2,0.7-0.4,1.3-0.1,2.4c0.3,1.1,2.7,0.5,3.9,0.4
	c1.2-0.1,1.8-0.3,2.4-0.5c0.6-0.2,2,0,2.6,0.1c0.6,0.1,2.4,0.7,3.6,0.4c1.2-0.3,0.8-0.5,1.4-1.1c0.6-0.6,1.1-0.4,1.5-0.4
	c0.4,0,0.9,1.4,0.9,1.7c0,0.3-2,0-2.1,0.3c-0.1,0.3,0.1,0.2,1.3,1c1.2,0.8,1.3,1.2,1.9,1.2c0.6,0,1.4-1.4,1.4-2.2
	c0-0.8-1.1-0.9-1-1.3c0.1-0.4,1.3-0.8,2.3-0.6c1,0.2,2.4,0.8,3.7,1.1c1.3,0.3,2.9-1.4,6-0.3c3.1,1.1,2.9,1.8,5,2.4
	c2,0.6,4.2,2.6,6.1,3.5c1.9,0.9,1.5,1.3,1.4,2c-0.1,0.7,0.5,1.5,1,1.5c0.5,0,1.8-1.3,1.8-1.3s1.8,0.1,3,0.9c1.2,0.8,2.8,1,3.3,1.5
	c0.5,0.5,0.1,0.1-1.3,1.3c-1.4,1.2-2.1,0.7-2.4,0.6c-0.3-0.1-1,1-0.9,2.3c0.1,1.3-0.5,1.1-1.8,0.9c-1.3-0.2-1.4-1.3-3.2-1.8
	c-1.8-0.5-0.4-0.4-0.6-1c-0.2-0.6-1.3-0.7-1.8-0.9c-0.5-0.2-1.1,0.9-1.9,0.1c-0.8-0.8-0.8-0.2-0.9-1.3c-0.1-1.1-1.6-0.7-2.2-0.4
	c-0.6,0.3,0.7,0.8,0.7,2.2c0,1.4-0.6,1-2,2c-1.4,1-2.7,0.1-3,0.1c-0.3,0,0.6,1,1.4,1.1c0.8,0.1,0.5,0.8,1,2.2
	c0.5,1.4,1.1,1.3,0.8,2.7c-0.3,1.4-2.3,0-4.3,0s-4.5,1-5.4,0.5c-0.9-0.5-1.6,2.4-2.3,3.5c-0.8,1-2.5,1.2-3.3,1.6
	c-0.8,0.4-0.6-0.1-1.2-0.3c-0.7-0.2-1.2-0.7-2.7-0.6c-1.5,0.1-1.5,1.3-2.7,1.3c-1.3,0-0.2-0.8-0.9-0.7c-0.7,0.1-0.9,1.1-1.5,1.2
	c-0.6,0.2-2-0.4-2.9,0.1c-0.9,0.5-0.5,1.3-0.7,2.1c-0.2,0.8-0.4,0.8-1.3,1.8c-0.9,1-0.6,1,1.2,1.1c1.8,0.1,0.8,0.7,0.5,0.8
	c-0.3,0.1-0.4,0.7-0.7,1.7c-0.4,1,1.1,0.6,1.1,1c0,0.4-0.4,1.2-0.8,1.2c-0.4,0-1.6-0.7-1.7-0.4c-0.1,0.3,0.4,2.6,0.4,2.6
	s-0.5,1.1-1.5,1.2c-1,0-1.2,0.5-2.3,1c-1.1,0.5,0.2,1.2,0,2c-0.1,0.8-1.8,0.2-1.8,0.2s-0.5,0.6-0.4,1.3c0.1,0.7-1.7,2-2.1,2.9
	c-0.4,0.9-1.9,0.7-1.9,0.7s-0.4-2.3-0.7-4.5c-0.3-2.2-0.7-6.9-0.7-6.9s1-1.3,1.6-2c0.6-0.7,1.3-2.3,1.8-2.5c0.6-0.2,1.1-1,2.8-2
	c1.7-1,3.3-3.2,3.7-3.6c0.5-0.4,1.1-1.3,1.6-1.5c0.5-0.3,2.1-0.7,2.5-2c0.4-1.3,0.7-1.4,0.7-2.5c0.1-1.2,1.6-0.4,1.6-0.6
	c0.1-0.2-2.2-0.1-2.9,0c-0.8,0.1-0.2,2.1-0.3,2.4c-0.1,0.3-0.8,0.1-1.4-0.1c-0.6-0.2-1.1,0.8-2.2,1.7c-1.1,0.9-1.1,0.9-2,0
	c-0.9-0.8,0.5-1.3,0.6-1.8c0-0.5-0.9-0.3-1.7-0.3c-0.9,0-2.8,0.2-3.8,0.3c-1,0.1-0.8,1.2-1.4,2c-0.6,0.9-1.5,1.7-2.5,2
	c-1,0.4-0.3,1.7-0.4,2.1c-0.1,0.4-1.1,0.2-1.9,0.5c-0.9,0.3-1.4,0.1-2.1,0.1c-0.7-0.1-0.9-0.4-2.3-1.7c-1.4-1.3-1.5,0.3-3.1,0.7
	c-1.6,0.5-3.4,0.2-3.8,0.3c-0.5,0.1-1.3,0.3-1.6,0.2c-0.3-0.1-2,0.1-3.2,0.1s-2.6-0.2-3.1,0.1c-0.5,0.3-1.2,1.2-1.7,1.3
	c-0.5,0.1-0.5,0.9-2.2,2.1c-1.7,1.2-1.9,2.3-2.2,3c-0.3,0.8-2.5,1.3-3.5,2.2c-1,0.9-2.2,1.6-2.8,2.4c-0.6,0.8,1.2,0.3,2,0.2
	c0.8-0.1,0.5,0.5,0.5,1.2c0,0.7,0.7,1,1.3,1.3c0.6,0.3,1.2,0.4,1.4-0.3c0.2-0.7,2.3-1.2,2.6-1.1c0.3,0.1,0.7,0.8,1.3,1.1
	c0.6,0.3,1.1,0.7,1.1,0.9c0,0.2,0.6,2.8,0.1,3.9c-0.6,1.2-0.6,2.6-0.6,3.1c0,0.5-0.5,2.8-0.7,3.5c-0.2,0.7-1.3,1.8-1.9,2.3
	c-0.6,0.5-1.4,1.8-1.4,1.8s-0.4,1.9-1.8,2.7c-1.4,0.8-2.5,3.1-3.5,3.9c-1,0.9-1.8,1-2.9,1.6c-1.1,0.6-1.9-0.5-2.8-0.8
	c-0.9-0.3-1,1.1-1.4,1.5c-0.4,0.4-2.3,1.7-2.8,1.9c-0.5,0.3-0.9,1.5-1,2c-0.2,0.5-0.8,1.7-1.3,2.3c-0.6,0.6,0.6,1.9,0.9,2.4
	c0.4,0.5,0.6,1.3,1.1,2c0.5,0.7,0.9,1.8,1,2.4c0.2,0.6-0.9,1.4-1.1,1.6c-0.2,0.2-1,0.9-1,0.9s-0.9-0.4-1.2-0.5c-0.3-0.2-2,0.9-2,0.9
	s0.1-0.7,0.1-1.8c-0.1-1.2,0-1.2,0-1.4c-0.1-0.2-1.1-0.2-0.6-1c0.5-0.8,0.8-1.4,0.8-1.4l-2.4-0.9c0,0-1.4,0.2-1.5-0.9
	c-0.1-1.1,1.7-0.7,2.1-1.6c0.5-0.9-1.4-0.7-1.8-1.2c-0.5-0.5-1.6-0.2-2.5-0.1c-0.9,0.1-2,1.1-2.3,1.1c-0.3,0-0.8,1.2-1.2,0.6
	c-0.4-0.6,0.1-1.6,1.1-2.8c1-1.2,0.4-0.6,0.3-1c-0.1-0.5-1,0-2.2,0.4c-1.2,0.4-2.3,1.8-2.5,2.4c-0.2,0.6-1.3,0.2-2.2,0.7
	c-0.9,0.5-0.6,0.5,0.3,1.7c0.8,1.2,1.6,1.8,2.1,2c0.5,0.2,1.7-0.9,2.2-1.3c0.5-0.5,0.6,0,0.9,0.4c0.3,0.5,2,0.7,2,1.2
	c0,0.6-1.1,0.3-1.5,0.6c-0.4,0.4-2.4,1.5-3.1,2.5c-0.7,1.1-0.5,0.9-0.1,1c0.4,0.1,1.1,1.3,1.5,2c0.4,0.7,0.9,2.4,1.5,2.7
	c0.6,0.4-0.6,1.2-0.6,1.2l0.8,1.5c0,0-1.6,0.9-1.4,1.6c0.2,0.7,1.8,0,2.2,0.6c0.5,0.7-0.2,1.6-0.3,2c-0.2,0.4-0.3,0.9-0.6,0.9
	c-0.3,0-1.7,2.1-2.1,2.9c-0.5,0.8-1.1,2.5-1.1,2.5s-1.2,1-1.5,1.2c-0.4,0.2-2.2,2.7-3.6,3.4c-1.5,0.7-1.6,0.3-2.7,0.2
	c-1.1,0-1.4,0.2-1.9,0.4c-0.5,0.2-2.9,1.4-4,1.5c-1.2,0.1-1.5,0.7-1.7,1.2c-0.2,0.5,0,1.1-0.6,1.1c-0.6,0-0.9-0.8-1-1.2
	c-0.1-0.4-0.8-1.1-1.4-1.1c-0.6,0-0.8,0-1.6,0.3c-0.8,0.3-1.1,1.3-2.2,1.9c-1.2,0.7-1.3,2.4-1,3.1c0.3,0.8,2,2.4,2.9,2.9
	c1,0.6,1.5,1.7,2.5,3.1c1,1.4,0.8,2.2,0.9,3.4c0,1.3-1.6,3.5-2.2,3.5c-0.6,0-1.3,0.6-1.3,0.6s-0.6,0.6-1.3,1.2
	c-0.7,0.6-1.8,2-2.2,2.2c-0.4,0.2-0.9,0.5-0.9,0.1c0-0.4,0.3-2.1,0.3-2.4c0-0.3-1.2-0.6-1.5-0.7c-0.3-0.2-1.3-0.6-1.4-1
	c-0.1-0.4-1.4-1.4-1.9-2.2c-0.5-0.9-0.6-0.3-1.3-0.4c-0.7,0-0.6,0-0.6-0.3c-0.1-0.3-1.2-1.5-1.4-1.5c-0.2,0-0.5,2.1-0.9,3.4
	c-0.5,1.4-0.7,1.6-0.9,1.5c-0.2-0.1-1-1.3-1.2-1.7c-0.3-0.4,0.1-1.1,0-1.6c-0.1-0.5-0.3-1.3-0.4-1.7c-0.1-0.4-0.4-0.7-0.6-1.1
	c-0.2-0.4-0.2-1.4-0.1-1.8c0.1-0.4-0.5-1.6-0.9-2.5c-0.4-1-1.4-0.1-2.1,0.4c-0.8,0.5-1.8,0.7-2.2,0.9c-0.4,0.2-1.8,0-1.8-0.5
	c0-0.5,0.8-0.4,0.8-1.1c0.1-0.7,0.1-1.2,0.2-1.5c0.2-0.4,0-0.8-0.5-1.7c-0.5-1-2.4-2.3-2.5-2.6c-0.1-0.3-0.4-0.7-0.6-0.8
	c-0.2-0.1-0.7-2.4-0.9-2.7c-0.3-0.3-0.7-0.6-1-0.9c-0.3-0.3-0.4-0.8-0.5-1.1c-0.1-0.3-0.9-0.7-0.6-0.3c0.3,0.4,0.3,2.2,0.2,2.5
	c-0.1,0.3-1.4,0.2-1.8,0.1c-0.4-0.1-0.9,0.3-1.5,0.1c-0.5-0.2-0.3-0.9-0.5-0.9c-0.2,0.1-0.2,1.1-0.8,1.3c-0.6,0.3-1,0.2-1.2,0.3
	c-0.2,0.2,0,1-0.3,1.7c-0.3,0.6-1.5,1.4-2.1,1.7c-0.6,0.3-2.1,1.4-2.8,2.2c-0.7,0.7-2.1,1.2-2.3,1.3c-0.2,0.1-0.4,1.2-0.9,1.9
	c-0.5,0.8-0.6,0.2-1,0.2c-0.4,0-0.4,0.5-0.9,0.9c-0.5,0.5-0.7-0.1-1.5,0.1c-0.8,0.2-0.6,1.1,0.1,2.2c0.7,1.1,0.2,2.5-0.2,3.2
	c-0.4,0.8-0.3,1.8-0.4,2.5c-0.2,0.7,0.1,1.1-0.4,1.4c-0.6,0.3-0.6,1.5-1.3,2c-0.7,0.6-1,1.5-2.3,1.9c-1.3,0.4-1.6-1.8-2-2.8
	c-0.4-1-1.9-4-2.3-5.4c-0.4-1.4-1.6-4.5-2.3-4.8c-0.7-0.4-0.5-2.4-0.6-3c-0.1-0.7-0.6-1.8-0.6-2.8c0-0.9-0.4-2.5-0.5-2.9
	c-0.1-0.5,1.7-2.6,0.2-2.9c-1.5-0.4-1.7,1.8-2.2,2.1c-0.5,0.3-2.7,0.3-2.9-0.1c-0.3-0.4-1.4-1.9-0.9-2c0.5-0.1,2.6-1.2,2.6-1.2
	s-1.1,0.3-2,0.3c-0.9,0-1.2-1.9-1.2-1.9s-1.1-0.1-1.7-0.6c-0.6-0.5-0.6-1.5-2.2-1.5c-1.6,0-5.5-0.2-7.5-0.2c-2,0-3.1-0.5-4-0.7
	c-0.9-0.2-2.1-0.3-3.7-0.8c-1.6-0.5-0.6-1.6-1.2-1.9c-0.7-0.3-1.7,0.8-1.7,0.8s-1.1,1.7-2.5,1.5c-1.3-0.2-1.6-0.9-1.4-1.6
	c0.2-0.7-0.4-0.7-1.1-1.2c-0.8-0.6-1.8-0.9-2.4-1.9c-0.6-1-1.3-2.1-1.6-3.2c-0.3-1.1-1.8-0.3-2.6-0.3c-0.8,0-0.9,0.7-1.2,1.7
	c-0.4,1,1,3.1,1.7,3.8c0.7,0.7,1.1,1.2,1.2,1.5c0.1,0.3,0.2,1.5,1.3,2.6c1.1,1,1.3,0.5,2.1,0.7c0.8,0.2,1,1.5,1,1.5l3-1
	c0,0,1.3-2.3,2.6-2c1.2,0.3,0.5,1.2,1.5,2c1,0.8,0.6,0.8,1,0.9c0.4,0.1,0.8,0.1,2.2,1.1c1.3,1,2.2,2.1,2.2,2.1l-2.5,2
	c0,0-0.7,0.6-0.9,1.1c-0.2,0.6-0.3,2.5-0.3,2.5s-0.9-0.1-1.8,1c-0.9,1-1.4,0.8-1.6,1.2c-0.2,0.5-1.2,0.6-3.3,0.9
	c-2.1,0.4-1.8,1.2-2.1,1.8s-1,1.5-3.2,1.4c-2.2-0.1-1.2,0.5-2.4,0.8c-1.1,0.3-1.4,1.1-3.2,1.9c-1,0.4-1.3,0.6-1.7,0.6
	c-0.3,0-0.7,0-1.4,0c-1.6,0-0.7,1.2-2.4,1.2c-1.7,0-1.4-2.8-2.2-4c-0.8-1.1-0.7-2.3-0.9-3.9c-0.3-1.6-1.9-3.6-2.8-4.7
	c-0.9-1.1-1.1-0.8-1.9-1.3c-0.8-0.6-0.3-1.5-0.7-3.6c-0.4-2.1-0.5-1.1-1.8-2.4c-1.3-1.2-0.5-0.5-0.9-1.4c-0.1-0.3-0.2-0.5-0.3-0.6
	c-0.1-0.2-0.4-0.4-1.4-1.6c-1.6-1.9-1.4-2.7-1.8-3.5c-0.4-0.8-1.4-0.8-1.4-0.8s-0.2,0.6-1,1c-0.3,0.2-0.8-0.2-1.2-0.8
	c0.6,0.9,0.7,2,1.4,3.1c0.9,1.2,1.6,2.9,2.4,3.8c0.8,0.8,0,0.9,0.1,1.8c0.1,0.9,0.8,0.9,1.3,1.3c0.6,0.4,0.6,0.9,1.2,1.7
	c0.7,0.9-0.2,1.5-0.2,2.5c0,1,1,2.5,1.7,3.1c0.7,0.7,1.3,1.5,2.6,2.2c1.2,0.7-0.5,1.6-0.5,2.1c0,0.5,1.8,1.6,1.8,1.6s1.1,0.6,1.6,1
	c0.5,0.5,1.3,1.6,1.8,2c0.5,0.4,1.2,1.3,1.9,1.6c0.7,0.3-0.5,0.8-0.5,0.8s-0.3,0.7-0.1,0.9c0.2,0.3,0.9,1.1,1.1,1.5
	c0.3,0.4,1,0.6,2.8,0.3c1.8-0.3,4.6-1.6,6.3-1.8c1.7-0.2,2.7-1,2.9-0.8c0.3,0.2-0.2,3.3-0.3,3.8c-0.1,0.5-0.2,4.5-2.7,6.1
	c-2.5,1.6-2.8,4.2-3.6,5c-0.8,0.9-3.5,2.4-4.6,3.7c-1.1,1.3-2.9,2.9-4.5,3.7c-1.6,0.8-2.1,3.4-4.2,6c-2.1,2.6-0.7,2.1-0.2,3.6
	c0.5,1.5,0,1.5,0.9,3.5c0.9,2,1.8,1.6,1.6,2.9c-0.2,1.3,0.7,4.9,0.4,7.8c-0.3,2.8-4.5,3.7-5.5,4.4c-1,0.7-2.8,2.6-4.4,4.4
	c-1.5,1.7,0,0.8,0.8,2.2c0.8,1.3,0.8,3.3,0.4,5c-0.4,1.7-2.8,1.4-4.2,1.6c-1.3,0.2-0.2,1.1-0.3,2.7c-0.1,1.6-0.6,1.3-0.9,2.5
	c-0.3,1.1-0.8,1.5-1.9,2.1c-1.1,0.6-0.3,2.4-2.4,3.8c-2.1,1.4-2,2.5-3.4,3.2c-1.4,0.8-2.3,2.1-4.8,2.1h-5.2c-1.8,0-2.5,1.1-3.7,1.3
	c-1.2,0.2-1.1,0.2-1.5-1c-0.4-1.2-0.8-1-1.7-2.5c-1-1.4,0.5-1,0.5-1s-1.1-3.9-1.6-5.4c-0.5-1.5-2.9-2.5-3.3-4
	c-0.4-1.5-1-3.6-1.1-4.5c-0.2-0.9-0.5-4-0.5-4s-0.3-0.8-1.3-2.6c-1-1.7-1-2.9-1.3-3.6c-0.3-0.7-1.8-1.2-1.7-1.8
	c0.1-0.6,0.7-5,0.7-6.6c0-1.6,2.4-2.2,2.8-4.4c0.4-2.2,0.2-0.8-0.7-2.9c-0.9-2.2-0.6-4.7-0.8-5.5c-0.2-0.8-1.1-2.1-1.7-3.2
	c-0.6-1.1-1-1.8-2.9-3c-1.9-1.2-1.4-3.3-1.4-4.7c0-1.3,0.1-2,0.1-2.8c0-0.9,0.1-1,0.8-1.7c0.7-0.7,0.1-2.6-1-3.5
	c-1.1-0.9-2.8,0.8-4.6,0.4c-1.8-0.4-2.1-0.4-3.8-0.8c-1.7-0.4-3.5-1.6-5.2-2.1c-1.7-0.5-1.4,0.3-2.3,0.8c-0.9,0.5-1.3,1.7-3,1.2
	c-1.7-0.5-1-0.2-1.9-0.3c-1-0.1-2.3,0.5-3.1,0.8c-0.9,0.3-2,1.2-3.5,1.3c-1.5,0.1-2-0.7-3.3-2.1c-1.3-1.4-1.3-1-2.4-1.4
	c-1-0.4-1.3-0.9-2.1-1.5c-0.8-0.6-1.6-1-2-2.4c-0.4-1.4-0.9-1.2-1-2c-0.2-0.8-1.4-1.8-1.6-2.7c-0.2-0.9-2.8-1.1-3.3-1.9
	c-0.5-0.8-0.1-1.4-0.5-2.1c-0.4-0.7-0.1-2.6,0.1-4.5c0.2-2,0.7-0.9,0.9-2.2c0.2-1.3-0.1-2.2-0.1-4.4c0-2.2-1.1-1.8-1.6-2.1
	c-0.5-0.3,0.1-1.5,0.8-2.5c0.7-1,0.7-1,1.5-2.3c0.9-1.2,1.6-3.9,2.7-4.8c1.1-0.9,0.8-1.7,1.1-2.6c0.4-0.9,1.5-0.4,2.2-0.6
	c0.7-0.2,1-0.8,2.2-2.3c1.1-1.4,1.2-1.3,1.6-2.3c0.4-0.9,0.6-2.7,1.4-4.3c0.9-1.5,1.9-1.5,2.7-2.6c0.9-1,1.9-0.5,1.9-2.3
	c0-1.8,1-1,1.2-1c0,0,0.6,0.2,1,0.4c0.4,0.2,0.8,0.2,1.2,0c0.4-0.2,1.7,0.2,2,0.2c0.3,0,1.5,0.1,2.2,0c0.7-0.2,1.3-0.1,2.1-0.5
	c0.8-0.3,3.1-1.5,3.5-1.7c0.4-0.2,2.6-1.2,3.1-1.3c0.5-0.1,2,1,2.6,1c0.6,0,1.2-0.4,1.6-0.8c0.5-0.4,1.5-0.7,1.7-0.8
	c0.2,0,0.7,0.8,1,0.8c0.3,0,1.6,0,2.3-0.3c0.8-0.3,0.6-0.1,1.2-0.3c0.6-0.2,0.9,0.5,0.9,0.8c0,0.3,0,1.1,0.6,1.5
	c0.5,0.4,1.1,0.8,1.3,1.3c0.1,0.5-0.8,1.1-1,1.2c-0.3,0.1-0.6,1.2-0.3,1.9c0.3,0.7,0.8,0.9,2.2,1.5c1.4,0.6,1.5,0.5,2.5,0.5
	c1,0,1.5,0,2.1,0.2c0.5,0.2,1,1,1.4,1.7c0.5,0.7,2-0.2,2.1,0.1c0,0.3,0.3,0.7,0.7,0.7c0.4,0,1.9,1.3,2.8,1.6c0.9,0.3,1.7,0,2.2-0.3
	c0.5-0.3,0.1-1.8,0.1-2.1c0-0.3,0.6-1.5,1.1-1.7c0.5-0.2,1.3-0.2,2.3-0.2c1,0,1.1,0,1.6,0.4c0.5,0.4,1.1,0.7,1.8,1
	c0.7,0.3,1.6,0.5,2,0.6c0.4,0.2,2.2,0.1,3.1,0.2c0.8,0.1,1.5,0.8,2.6,1c1,0.2,1.5,0.2,2.6-0.4c1-0.6,1-1.4,1.1-1.5
	c0.1,0,0.4,0.5,0.6,0.8c0.2,0.3,1.4,0.7,1.9,0.9c0.5,0.2,1.5,0,2.2,0.3c0.7,0.3,1,0,1.5-0.1c0.5-0.1,1.2-0.5,1.4-0.8
	c0.2-0.4,0.3-0.8,0.2-1.2c-0.1-0.4-0.3-0.8-0.2-1.3c0.1-0.5,0.5-0.7,0.9-1.3c0.4-0.6,0.5-1,0.5-1.5c0-0.3,0-0.9,0-1.4
	c0,0-0.1-0.1,0-0.2l0-0.2c0-0.2-0.2-0.4-0.3-0.5c0.1-0.3,0.4-0.4,0.6-0.7l0-0.1c0-0.2,0.1-0.3-0.1-0.4c-0.1-0.1-0.2-0.1-0.3-0.1
	c-0.1,0.3-0.4,0.2-0.5,0.4c0,0.5-0.4,0.1-0.6,0.3c-0.1-0.1-0.2-0.1-0.3-0.2c-0.2-0.1-0.4,0-0.5-0.3c-0.2,0-0.4-0.1-0.6,0.1l-0.8,0.7
	c-0.1,0.1,0,0.3-0.2,0.3c-0.2-0.3-0.2,0.2-0.5,0.2c-0.2-0.2-0.2,0.2-0.4,0c-0.3,0.1-0.5-0.1-0.7,0.1c-0.2-0.2-0.4,0.1-0.5,0.1
	c-0.2-0.1-0.4-0.1-0.6-0.3l-0.6-0.8l-0.3-0.2c-0.1,0-0.2-0.2-0.3-0.2c-0.2-0.2-0.5-0.2-0.7-0.4l-0.7-0.2l-0.3,0.1
	c-0.1-0.1-0.2-0.2-0.3,0c-0.1,0.3-0.2,0.4-0.1,0.7c-0.2,0.2,0,0.6-0.3,0.7c-0.1-0.1-0.1-0.3-0.2-0.2c-0.2,0.2-0.5,0.1-0.7,0.3
	c-0.1,0-0.2,0-0.3,0.1c0-0.1-0.1-0.1-0.2-0.1c0-0.1-0.1-0.1-0.2-0.1l-0.1-0.2l-0.1,0.1l-0.4-0.4c-0.1-0.1,0.1-0.4-0.2-0.4l0.1-0.2
	c-0.1-0.1-0.1-0.2-0.2-0.2c-0.1,0.1,0,0.3-0.2,0.3c-0.1-0.1-0.1-0.4-0.3-0.2l-0.1-0.3c-0.2,0.2-0.2-0.1-0.2-0.1l-0.1,0.2l-0.1-0.1
	c0,0,0,0.1,0,0.1c0,0.2-0.2,0.3-0.4,0.3c0,0.1-0.1,0.1-0.2,0.1c0,0,0-0.1,0.1-0.1l-0.1-0.1l0.1-0.2l-0.1-0.1
	c-0.1,0.1-0.3,0.1-0.4,0.1c-0.1,0.1-0.2,0.3-0.4,0.1c-0.1,0-0.2,0.1-0.3,0c0.1-0.3,0.5-0.2,0.7-0.2l0.3,0c0,0,0.1-0.1,0.1-0.2
	c0-0.2,0.2,0,0.2,0l0-0.1c0-0.1,0.2-0.1,0.2-0.2l-0.6,0l-0.8,0c-0.1-0.1-0.2-0.1-0.3,0c-0.1,0.1-0.2-0.1-0.2-0.1
	c0-0.1,0.1-0.2,0.2-0.2c0,0,0.1,0.1,0.2,0.1c0.1-0.1,0.2-0.2,0.1-0.3c-0.2,0,0-0.2-0.2-0.2l0-0.1c-0.1,0-0.1,0.1-0.2,0.1
	c-0.1,0,0-0.3-0.2-0.2c0.1-0.1-0.1-0.2,0.1-0.3c0-0.1-0.2-0.1-0.3-0.2l0.1-0.1l0.2-0.1c0-0.2,0.3-0.4-0.1-0.5
	c-0.1-0.1-0.3-0.3-0.5-0.3l0-0.2c0-0.2-0.2-0.1-0.4-0.1c0,0,0.1,0.1,0,0.2l-0.1-0.1c-0.1-0.2-0.5-0.2-0.4-0.4l0.2,0
	c0.1-0.1,0.3-0.1,0.1-0.2c0-0.1-0.3-0.3-0.1-0.4c0.3-0.1,0.3,0.3,0.4,0.4l-0.1,0c0,0.1,0,0.2,0.1,0.2l0.1-0.1l0.2,0.1
	c0.1,0,0.3,0,0.4-0.1l-0.2,0l-0.3-0.6c0.1-0.1,0.2,0.1,0.3,0c-0.1-0.2,0.2-0.1,0.2-0.3c-0.1-0.2-0.4,0.1-0.4-0.1l0.1-0.1
	c0.2-0.3-0.3-0.5-0.3-0.7c0,0,0.1-0.1,0.1,0c0.3,0,0.2-0.3,0.4-0.3c0-0.1,0.1-0.1,0-0.2c-0.2,0-0.5,0.1-0.7,0
	c-0.2,0.2-0.4,0-0.7,0.1c-0.1,0,0-0.2,0-0.2l0.1-0.8c0.1-0.4,0.4,0,0.4-0.4l0.6-0.5h0.5l0.2-0.1c0.1,0,0.2,0,0.3,0
	c0.2,0,0,0.2,0.2,0.3l0.6,0l0.1-0.1l-0.2-0.2l0.2-0.1c0.1,0,0.3,0.1,0.4,0.2l-0.1,0.1c0.5,0,0.7,0,1.1,0.1c0.2-0.1,0.3,0,0.5,0
	c0.1,0,0.3,0,0.3-0.2c-0.1-0.1-0.2-0.1-0.3,0l-0.2-0.1c-0.1-0.1,0.1-0.1,0.2-0.2l0.8-0.1l0.1-0.1c0.1,0.1,0.4,0.1,0.6,0.1
	c-0.2-0.2-0.5-0.1-0.8-0.1c-0.1-0.1-0.3-0.2-0.4-0.3c-0.2-0.2-0.1-0.4,0-0.6c0.3-0.1,0.4,0,0.7,0.1l1,0.2l0.3-0.1l0.9,0.3l0.6,0
	c0.3-0.1,0.3-0.3,0.4-0.5c0.3-0.1,0.6-0.4,1-0.4c0.3-0.3,0.8-0.5,1.2-0.6l0.9-0.4c0.3,0.1,0.5,0,0.8,0.1c0.3-0.1,0.5,0.2,0.8,0.1
	c0.4,0,0.8,0.2,1-0.3l0.3,0c0.2,0,0,0.2,0,0.3c-0.1,0.2,0.2,0.2,0.2,0.4c0.2,0.3,0.4,0.2,0.7,0.3c0.3,0.1,0.6-0.4,0.8-0.1
	c0,0.3,0.2,0.7,0.5,0.9c0.1,0.1,0.4-0.1,0.4-0.2c0.2,0,0.4,0.1,0.6,0.2c0.1,0.3,0.4,0.3,0.6,0.3l0.3,0.2c0.1-0.1,0.1-0.2,0.2-0.2
	c0.1,0.2,0.3,0.3,0.5,0.3c0.4,0.1,1,0.1,1.3-0.1l0.6-0.2c0.1,0,0.4-0.2,0.5-0.1c0.2,0.2,0.4,0.1,0.6,0.2l0.2,0
	c0.1,0.2,0.4,0.1,0.5-0.1c0.1,0,0.2-0.1,0.3-0.1c0.2-0.2,0.5-0.4,0.6-0.5c0.3-0.1,0.6-0.3,1-0.6l0.4-0.3c0.5-0.4,0.4-0.8,0.4-0.8
	s0.2-1.1,0.1-1.3c0-0.1-1-0.7-1.3-0.7c-0.3,0-2-1.3-2.3-1.4c-0.3-0.1-1-1-1.3-1.1c-0.2-0.1-1.5-0.5-2.1-0.8
	c-0.6-0.3-1.2-1.1-1.3-1.2c-0.1,0-1.4-0.5-1.6-0.5c-0.2,0,0.1-0.4,0.1-0.4s1.6,0.5,2,0.1c0.4-0.4,0.7-0.8,1.1-1.4
	c0.4-0.6,0.2-0.3-0.4-0.8c-0.6-0.5,1-0.4,1-0.4s-0.5-0.2-1-0.3c-0.5-0.1-1.5-0.1-1.8,0.1c-0.3,0.2-0.9,0.7-2.1,1
	c-1.2,0.4-0.9,0.7-1,1.1c0,0.5,1.5,0.7,1.5,1c0,0.3-0.3,0-1,0.6c-0.8,0.7-1,0.8-1.4,1.2c-0.5,0.5-0.8-0.1-1-0.4
	c-0.1-0.3-0.3-1-0.8-1.2c-0.5-0.2-0.6-0.5-0.2-0.6c0.5-0.1,1.1-1.2,1.1-1.2s-1.4,0-1.7,0c-0.2,0-0.9-0.5-1-0.7
	c-0.1-0.2-1.1-0.5-1.9-0.3c-0.8,0.2-0.5,0.5-0.9,0.8s-0.8,0.8-1,1.7c-0.2,0.8-1.3,0.7-1.5,0.9c-0.3,0.3-0.4,1.4-0.5,2
	c-0.1,0.6-0.4,1.2-1.1,1.8c-0.5,0.5-0.4,1.5-0.2,2c0,0,0.1,0,0.1,0.1c0.1-0.2,0.2,0,0.3,0C348.9,179.1,349.2,179.4,349.3,179.7z
	 M346.5,181.7c0.1,0,0.1,0,0.2,0c0.1-0.1,0.3-0.1,0.2-0.2L346.5,181.7z M357.6,205.2c-0.1-0.2-0.2-0.4-0.4-0.5
	C357.4,204.9,357.5,205.1,357.6,205.2z M356,202.6c0,0,0.3,1,1.2,2.1C356.6,203.7,356,202.6,356,202.6z M375.1,185.3
	c-0.2-0.1-0.4-0.1-0.6,0.1c-0.1,0-0.2,0-0.3,0.1c0,0.1,0.1,0.1,0.2,0c-0.3,0.4-0.6,0.2-1,0.4l-0.2,0.1c0,0.1,0,0.1,0.1,0.2l-0.2,0.3
	c0.1,0.1,0.2-0.1,0.3,0.1c0.1-0.2,0.3,0,0.4,0c0.1,0,0.2-0.1,0.3,0c0.1,0.3,0.2,0.1,0.4,0.2c0.1-0.1,0.1-0.2,0.2-0.3
	c0.1,0,0.2-0.1,0.1-0.2c-0.1-0.1-0.2-0.2-0.3-0.2c0.1-0.1,0-0.3,0.2-0.3l0.1-0.2c0.1,0.2,0.2-0.1,0.3-0.1L375.1,185.3L375.1,185.3
	L375.1,185.3z M357.7,186.6c-0.1-0.2-0.4-0.4-0.3-0.6c0.2-0.2,0.3-0.3,0.3-0.5c0.1,0,0.2,0.1,0.2,0.2c0,0.2-0.2,0.2-0.1,0.3
	c0.2,0.1,0.1,0.3,0.2,0.4C358.1,186.7,357.8,186.6,357.7,186.6z M354.5,188.6c-0.1-0.2-0.1-0.5-0.3-0.7c0.2-0.2,0.2,0.1,0.4,0.2
	c0,0.2,0.1,0.3,0.2,0.4L354.5,188.6z M353.4,188c-0.2-0.2,0-0.4,0-0.6c-0.1,0-0.2-0.1-0.1-0.2c0.1,0,0.2-0.1,0.2,0l-0.1,0.2
	c0.1,0,0.1,0.1,0.1,0.2l0,0.2L353.4,188z M351.4,182.4c-0.1-0.1-0.3-0.1-0.2-0.2c0.2-0.1,0.3,0.1,0.5,0l0.1,0.1
	C351.7,182.5,351.5,182.4,351.4,182.4z M90.2,122.2c0,0,3.2-0.9,4.9-1.3c1.7-0.4,2.2-0.9,3.2-1c0.9-0.2,1.3,0.1,1.2,0.3
	c-0.1,0.2-1.6,0.8-1.6,1c0.1,0.3,1.9,0.5,2.3,0.4c0.4-0.1,1.4-1.6,1.9-0.6c0.6,1,0,1.4,0,1.4s-0.3,0.8-1,1.2
	c-0.7,0.4-1.6-0.4-1.6-0.4l-1.2,0.4c0,0,0.3,0.7-0.4,1.2c-0.7,0.6-1.7,0.5-1.7,0.5s1.1-1.5,0.8-1.5c-0.3,0-2.1,0.6-2.1,0.6
	s-0.6,0.8-0.9,0.9c-0.3,0.1-1.9-0.4-1.9-0.4l1.2-0.9c0,0,0.8-1,1.4-1.1c0.5-0.1,1.4-0.2,1.4-0.2s-1.3-1-1.5-1c-0.2,0-1.1,0.3-2,0.5
	c-0.9,0.2-2.3,0.2-2.3,0.2L90.2,122.2z M102.6,135.6c0.1,0.1,1.8-0.3,2.4-0.5c0.6-0.3,1.2-1.1,1.4-1.1c0.1,0,0.9-0.1,0.9-0.1
	s-1.7-1.6-2-2.1c-0.2-0.5,2,0.5,2,0.5c0.1,0.1,0.8,0.4,1.4,0.7c0.6,0.3,1.4,0.4,2,0.2c0.6-0.2,1.7-1.3,2-1.8
	c0.3-0.5,1.3-0.9,1.6-0.8c0.3,0.1,2.7,0.8,2.7,0.8s-3.3,1.3-3.6,1.3c-0.3,0.1-1.6,0.8-2,1.3c-0.4,0.5-0.9,1-1.6,0.9
	c-0.7-0.1-1.3,0-1.4,0.3c-0.1,0.2,0,0.6-0.7,0.8c-0.7,0.2-1.1,0.5-2,0.4c-0.9-0.1-1.9-0.5-2.2-0.5
	C103.3,136,102.6,135.6,102.6,135.6z M113.1,142.4c0,0,0.9-1.8,1.3-2c0.4-0.2,0.9-0.8,1.4-0.8c0.5,0,3.5,0.5,3.9,0.6
	c0.4,0.1,1.7,0.4,1.4,0.4c-0.2,0-4.9-0.3-5.5,0.1c-0.6,0.4-1,1.3-1.2,1.6c-0.1,0.4-0.7,1.1-0.9,1.1
	C113.3,143.4,113.1,142.4,113.1,142.4z M131.1,129.4c-0.4,0.1-3,0.6-2.7,1.1c0.2,0.5,1.5,1,1.5,1s0.6-1,0.8-1.1
	C130.9,130.4,131.1,129.4,131.1,129.4z M135.3,152.9c0.3,0.3,2.2,3.3,2.8,4.3c0.6,0.9,0.6,1.9,0.6,2.5c0,0.6-0.3,1.3-0.5,1.2
	c-0.3-0.1-0.6-2.5-0.6-2.5l-0.9-1.1c0,0-0.7,0.3-0.9,0.2c-0.2-0.1-1-1.5-1.3-1.7c-0.3-0.2-0.8-1.2-0.8-1.4c0.1-0.2,0.4-0.3,0.3-0.5
	c-0.1-0.2,0.1-1,0.1-1H135.3z M133.8,157.5c0,0,0.5,0.9,0.7,1c0.1,0.2,0.4,0.8,0.6,1.2c0.2,0.4,0.8,0.3,0.7,0.8
	c-0.1,0.4-0.8,0.6-0.8,0.6s-0.8-1.4-0.9-1.6c-0.2-0.2-0.3-1.3-0.3-1.3L133.8,157.5z M151.3,161.8c0,0,0.6,1.1,0.9,1
	c0.3-0.1,0.3-1.4,0.3-1.4s-0.9-0.7-1-0.7C151.4,160.8,151.3,161.8,151.3,161.8z M147,168.4c0.2-0.1,1.8-2,2.7-1.9
	c1,0.2,1.6-0.8,2-1.1c0.4-0.3,0.8-0.9,1.1-0.9c0.3,0,1.7,0,2.8,0.3c1.1,0.4,1.2,1.3,1.4,1.6c0.3,0.4,1.1,0.5,1.5,0.9
	c0.4,0.5,0.5,1.7,0.8,1.9c0.4,0.2,1.2,0.8,1.6,0.8c0.5,0,1.8,0.2,3.2,0.5c1.4,0.4,3.3,2.1,2.9,2.5c-0.4,0.4-0.9,0.6-1.1,0.5
	c-0.2-0.1-1.6-1.1-1.6-1.1s0,1.5-0.5,1.9c-0.5,0.5-0.1,1.9-0.5,2.3c-0.5,0.4-1,0.1-1,0.1l-0.2-1.8c0,0-1.4,0.5-1.6,0.7
	c-0.3,0.2-0.3-0.9-0.3-0.9s1.5,0.2,1-1.2c-0.5-1.4-1.3-1.6-1.5-1.6c-0.3,0-1.1-0.8-1.1-0.8s-1.2,1.4-1.6,1.6c-0.4,0.3-0.8,0.7-1,1.3
	c-0.2,0.6-0.8,2-0.7,2.6c0.2,0.6,0.4,2.6-0.6,2.6c-1,0-1.8-0.4-1.4-2.4c0.5-2.1,0.4-2.2,0.5-2.6c0.1-0.5,0.1-1.4,0.3-1.7
	c0.2-0.3,0.2-1.1,0.6-1.3c0.5-0.2,1.9-0.2,2.2-0.4c0.3-0.2,1.6-0.4,1.6-0.4l0.8-0.3l-1.8-0.6c0,0-0.9-0.6-1.4-0.5
	c-0.6,0.2-1.8,0.8-2,0.6c-0.3-0.2-0.8-0.8-1.4-1.1c-0.6-0.3-1.1-0.3-1.1-0.3s-1.1,0.4-1.5,0.6c-0.4,0.2-1.8,0.3-2.1,0.2
	c-0.3-0.2-0.9-0.4-0.9-0.4L147,168.4z M160.7,179.3c0,0,0.2-0.3,1.6-0.5c1.4-0.2,1.6-0.9,2.3-1.1c0.7-0.2,1.2,0,1.8-0.2
	c0.6-0.2,2.4-0.5,2.4-0.5s-1.5,1.1-3.1,1.7c-1.7,0.7-3,1.4-3.5,1.2C161.4,179.8,160.7,179.3,160.7,179.3z M166.8,176.4
	c0,0,0.2-1,1-1.4c0.9-0.4,2.1-0.7,2.4-0.7c0.3,0,1.6,0.7,2,0.5c0.4-0.2,0.2-0.7,0.2-0.7s0.9,1.2,0.3,1.4c-0.6,0.2-2,0.9-2.4,0.7
	c-0.4-0.2-2.7-0.2-2.7-0.2L166.8,176.4z M156.1,125.5c-0.2,0.2-0.2,2.6-0.2,2.6l-1.9,0.6c0,0,0.2,0.6,0.7,0.5c0.5-0.1,2-0.3,2-0.1
	c0,0.2,0,1.3,0.5,1.4c0.6,0.1,1.9-1.8,2.5-1.9c0.6-0.1,1.3-1.4,1.5-1.3c0.2,0.1,1.5,2.5,2.8,2.2c1.3-0.2,1.6-1,1.6-1
	s-1.7-0.3-2.1-0.4c-0.3,0-0.6-1.3-1.3-1.5c-0.7-0.2-1.7-0.9-1.7-0.9s-2.2-1-2.3-1c-0.1-0.1-1.3-1.4-1.3-1.4l-0.9,1.3
	C156.3,124.3,156.3,125.3,156.1,125.5z M170.8,118.5c0,0-0.8,0.8,0.9,0.7c1.7-0.1,2.9-1.2,2.9-1.2s-0.1-1.2-0.6-1.4
	c-0.5-0.2-1.5-0.5-1.8-0.3c-0.3,0.1-1,0.9-1,0.9L170.8,118.5z M163.3,131c0,0-1.4-0.1-1.8,0c-0.4,0.1-1.7,0.9-1.8,1
	c-0.1,0.1,0.3,0.8,0.9,0.8c0.7,0,1.2-0.6,1.7-0.8c0.5-0.2,0.9-0.6,0.9-0.6V131z M165.9,133.3c0,0,0.8,1.3,1.1,1c0.3-0.2,1.2-0.7,1-1
	c-0.1-0.3-0.3-0.8-0.5-0.8c-0.2,0-1.2,0.2-1.2,0.2L165.9,133.3z M136.5,111.6c0,0,1.6,1,2.3,1.6c0.7,0.6,1.6,1.5,1.2,1.6
	c-0.4,0.1-2.1,0.4-2.1,0.4s-0.9-0.1-1.4-0.3l-1-0.5c0,0-1.9-0.2-1.9-0.3c0-0.2,1.3-0.5,1.3-0.5s0.5-0.4,0.7-0.7
	C135.8,112.5,136.5,111.6,136.5,111.6z M135.9,106.4c0,0-0.3,0.8-0.5,0.8h-1l-0.5-0.7l-1.3-1c0,0-1.1-0.3-1.4-0.5
	c-0.2-0.2-1.5-1.2-2-1.4c-0.5-0.2-1-1.3-0.5-1.5c0.5-0.2,0.8,0.4,1.6,0.6c0.8,0.2,2,0.6,2.2-0.2c0.2-0.8-1.5-1.7-1.4-1.9
	c0.1-0.2-0.5-0.8,0.8-1.2c1.3-0.4,2.1,0,2.1,0h1.5c0,0,0.2-0.4,0.8-0.5c0.6-0.1,1,0.6,1,0.6s0.2,0.9,0,1c-0.2,0.1-1.5,1.7-1.5,1.7
	s1.8-0.3,1.8,0.1c0,0.4-0.1,0.8,0.5,0.8c0.6,0,0.5,0.5,0.5,1c0,0.5,0.2,1-0.1,1.5c-0.3,0.5-1.7,0.8-1.7,0.8L135.9,106.4z
	 M112.6,110.1c0,0,0-0.4-1.5-0.7c-1.4-0.3-3.2-0.6-3.4-0.4c-0.2,0.2-0.1,0.2-1.2,0.3c-1.1,0-3.3,0-3.8-0.1c-0.5-0.2-0.9-1.2-0.7-1.2
	s3.5-0.1,4.4-0.6c0.9-0.5-0.4-0.4-0.4-0.4s-2.9,0.3-3.2,0.1c-0.3-0.1-0.8-0.7-0.8-0.7s-1.4,0.1-1.4-0.4c0-0.5,1.4-1.9,1.4-1.9
	s1.7-1,2.4-1.3c0.6-0.3,2.1-1.1,2.9-1.2c0.8-0.2,1.8-0.2,1.8,0.1c0,0.4-0.6,0.9-0.8,1.2c-0.2,0.3,1,0.4,1.3,0.4
	c0.2-0.1,0.2-1.2,1.1-1.1c0.9,0,2.1,0.6,2.4,0.6c0.2,0,0.2,0.8,0.8,1.4c0.6,0.6,1.3-0.1,1.6-0.1c0.3-0.1,0.3-0.7,0.3-0.7l-0.2-1.2
	c0,0,2.3,0.8,2.5,1.4c0.2,0.5-0.2,1.5,0.6,2.1c0.8,0.6,1.3,0.2,1.3,0.2s-0.4-0.4-0.7-1.5c-0.3-1.1-0.1-0.8-0.3-1.8
	c-0.2-1-0.3-1.5-0.1-1.5c0.3,0,3.1,1.3,3.5,1.4c0.4,0.1,1,0.6,1,0.6s0,0.6,0.4,1.5c0.4,0.9,0.8,1.8,1,2.1c0.1,0.3-0.8,1.6-0.3,1.9
	c0.4,0.2,1.5,0.6,2.6,1.1c1.1,0.5,3.1,1.2,3.1,1.2l1.3,0.6c0,0-3.7,0.9-4.1,1.2c-0.4,0.4-0.4,0.6,0.1,0.6h1.8c0,0-0.2,1.3-1.6,1.3
	c-1.4,0-1.5-0.2-2.2-0.4c-0.7-0.2-2.7-0.7-3.2-0.8c-0.5,0-0.9-0.7-0.9-0.7s0.1,0.9-1.7,0.9c-1.8,0-1.9,1.1-1.9,1.1s-3.8,0.6-4,0.5
	c-0.2,0-2.2,0.1-2.7,0.2c-0.5,0.1-1.1-0.3-1.1-0.3l-0.3-1.6c0,0-2.9-0.3-3.7-0.1c-0.8,0.1-2.7-1.9-2.5-2.2c0.2-0.3,2.1-0.4,2.4-0.5
	c0.3,0,3.6,0,4.4,0.2C111.2,110.8,112.6,110.1,112.6,110.1z M98.5,105c0,0-0.3,2.4-0.8,2.4c-0.5,0-2.2,0.3-2.5,0.4
	c-0.3,0.1-1.6,0.3-1.8,0.2c-0.2-0.1-0.8-1.4-0.8-1.4s-2.3-0.6-2.8-0.8c-0.5-0.2-0.6-1.3-0.4-1.4c0.2-0.1,2.6-2.2,2.7-3.6
	c0.1-1.4,0.3-1.8,0.1-2c-0.2-0.1-0.9-1.7-0.7-1.7c0.2,0,3.8,0,3.8,0s0.5-0.6,1-0.5c0.5,0,2.5,1.2,2.6,1.4c0,0.1,1.8,0.1,2.5,0.1
	c0.7,0,1.9-0.2,2.1-0.2c0.2,0,1.7,1.1,1.7,1.1l2.3,1.5l-7,2.6c0,0,0.3,0.8-0.2,1.2C99.5,104.7,98.5,105,98.5,105z M106.5,92.7
	c0,0-1.2,0.2-1.7,0.4c-0.5,0.2-1.8,0.9-1.8,0.9s0.1,0.3,0.8,0.4c0.7,0.1,1.8,0,2.3,0.2c0.5,0.1,1.9,0.4,2.2,0.1
	c0.3-0.3,1.1-1.3,1.1-1.3s-0.3,0.8,0.3,1c0.6,0.2,0.8-0.1,1.5-0.1c0.7,0,2.5,0.1,2.5,0.1s-2.3,0.5-2.6,0.7c-0.3,0.1-1.6,0.7-1.9,0.8
	c-0.3,0.1-0.4,0.7,0.3,0.8c0.7,0.1,2.2,0,3-0.1c0.7-0.2,1.9-1.2,2.7-1.4c0.9-0.2,1.2,0.1,3.3,0.1c2,0,4-0.5,4-0.5s0.7-2.4,0.6-2.9
	c-0.1-0.4-1.1-0.5-1.8-0.3c-0.6,0.2-1.5,0.8-1.9,0.2c-0.4-0.6-0.3-1.5-0.6-1.9c-0.2-0.4-0.5-1.6-1.2-1.4c-0.7,0.2-2.2,1.4-2.2,1.4
	s1.3,0.8,1.5,1.1c0.2,0.3-1.4,0.4-0.5,0.8c0.9,0.5,1.5,0.9,1.2,1c-0.3,0.1-0.9,0.3-1.5,0.1c-0.6-0.2-2.3-0.1-2.5-0.2
	c-0.2-0.1-0.9-1.1-1.4-1.4c-0.5-0.3-1-0.6-1.3-0.6c-0.2,0-1.5-0.1-1.5-0.1s0.3-0.6-1-0.8c-1.3-0.2-2.6,0.2-2.6,0.4s-1.2,0.9-1.2,0.9
	s0.1,0.3,0.4,0.4c0.3,0.1,0.8,0.1,0.8,0.1l-1.1,0.9L106.5,92.7z M104.3,89.6c0,0-0.5,0.8-1,0.8c-0.4,0-1.1-0.3-1.1-0.3l0.1-1.6
	c0,0-0.2,0.8-0.6,0.9c-0.4,0.2-0.8,0.4-0.9,0.7c-0.1,0.2-1,0.8-1,0.8s-0.7,1.3-0.9,1.4c-0.2,0.1-1.3-0.4-1.1-0.6
	c0.1-0.2-0.1-0.6-0.5-0.4c-0.4,0.2-0.9,0.4-0.9,0.4H95c0,0-1.4-0.5-1-1c0.4-0.5,1.5-1.1,2.5-1.5c1-0.3,3.9-2.5,3.9-2.5l3.6,0.1
	c0,0,0.6-1,0.8-0.9c0.2,0,0.2,0.5,0.7,0.5c0.6,0,0.9,0.3,0.7,0.5c-0.2,0.2-1.3,0.3-1.3,0.5c0,0.2,0.4,1.8,0.4,1.8L104.3,89.6z
	 M110.2,85.5c0,0,0.1,1.2,1,1.2c0.9,0,1.9-0.1,2.1-0.1c0.2,0,1.8-0.5,2.2-0.8c0.4-0.3-0.7-0.8-0.7-0.8l-0.7-0.9c0,0-1.4-0.2-1.7,0.2
	c-0.4,0.4-1.2,0.6-1.2,0.6L110.2,85.5z M110.8,82.6c0,0,2.5,1,3.2,0.9c0.7-0.1,2.1-0.2,2.6-0.3c0.5-0.1,0.7-0.4,0.2-1.2
	c-0.5-0.7-1.2-1-1.7-0.9c-0.5,0.2-1.9,0.7-2.2,0.9C112.8,82.2,110.8,82.6,110.8,82.6z M156.9,99c0,0-2.4,0.3-3.3,0.5
	c-0.9,0.2-4.6,2.7-4.4,4.4c0.2,1.7-0.1,3.3,0.7,3.3c0.8,0,3.6,0.7,3.6,0.7s-2.8-0.1-2.8,0.3c0,0.4,0.7,1.6,1.6,1.6
	c0.9,0,2.5,0.5,3.7,1c1.2,0.4,3.6,0.3,4.1,0.3c0.5,0,2.2-0.2,3.2-0.3c1-0.1,1.7,0,2.4,0.2c0.7,0.2,2.5-1.2,2.5-1.2s0.8,0.3,1,0.4
	c0.1,0.1,0.4,1.2,0.9,1.4c0.5,0.2,1.8,0,2.2,0.7c0.5,0.7,1.2,1.2,0.8,1.3c-0.5,0.1-1,0.7-0.2,1.1c0.8,0.4,2-0.4,2-0.4
	s2.9,1.6,3.6,2.7c0.7,1.1,0.5,2.5,0.2,2.9c-0.4,0.4-2.2,2-2,2.3c0.2,0.3,0.1,1.8,0.1,1.8s-1,0.4-1.7,0.5c-0.7,0-5-0.1-5.3,0.1
	c-0.3,0.2-1.5,1.5-0.5,2.1c1.1,0.6,2.3,1.2,3.2,0.8c0.9-0.4,2.5-1.3,3.1-1.1c0.5,0.2,4,2.5,4,2.5s0.3,1,0.7,1.3
	c0.4,0.3,2,0.7,2.4,0.8c0.4,0.2,5.2,2.3,6,2.3c0.8,0.1,1.1-0.4,1.1-0.4s-4.5-3.8-4.1-4c0.4-0.2,4.7,2.5,6,2.4c1.3-0.1,0.3-3.5-0.2-4
	c-0.5-0.5-5.3-4.1-5.2-4.6c0.1-0.5,0.7-1.3,1.1-1.3c0.4,0.1,3.4,0.5,4.3,1.8c0.8,1.3,1.6,2.1,2.1,1.9c0.5-0.2,0.3-1.4,1.5-1.7
	c1.2-0.3,1.6-1,1.8-1.5c0.2-0.5,0.5-0.7,0.5-1.3c0-0.6-2.2-0.6-3.1-1.2c-0.8-0.6-1.2-0.6-2.1-1.5c-0.9-0.9-2.4-1.4-3.5-1.6
	c-1.1-0.3-2.2-0.5-2.7-1.1c-0.5-0.6-1.2-1-0.5-1.3c0.7-0.3,1.9-0.5,2-0.6c0-0.2-0.6-0.8-0.6-1.5c0-0.7-1.6-1.9-2.1-2.2
	c-0.5-0.3-1.8-0.7-2.2-0.9c-0.4-0.2-1.6-0.8-2.1-1.5c-0.5-0.8-1-1.3-1.6-1.2c-0.6,0.1-0.8,1-1.6,0.8c-0.9-0.2-1.3-1.3-1.3-1.3
	s-3.7-2.6-3.9-2.7c-0.3-0.1-1.6-0.1-2.5,0.3c-0.9,0.4-1,1.2-1.8,1.5c-0.8,0.3-1.7,0-1.9,0.1c-0.2,0.1-0.8-0.8-0.8-1.1
	c0-0.3,0.3-1.2,0.2-1.4c0-0.3-1.9-2.9-2.5-2.9c-0.6-0.1-3,0.3-4,1.2c-1,0.9-2,1.5-2,2.3c0,0.8,1.5,0.7,1.2,1.3
	c-0.4,0.6-1.5,0.4-1.3,0.9c0.2,0.5,1.5,1.2,1.1,1.4c-0.4,0.3-0.7,0.4-1.2,0c-0.5-0.4-1.1-1.9-1-3.8c0.2-1.9,1.2-2.3,1.3-2.6
	C157.1,99.6,156.9,99,156.9,99z M145.9,95c0.2,0.1,1.3,1.4,3.4,1.5s2.1-0.4,3.1-0.1c1,0.3,1.8,0.7,3.1,0.5c1.4-0.2,3-0.5,3.9-0.5
	c0.9,0,1.4-0.5,1.9-0.5c0.5,0,0.7,1.2,2.7,0.9c1.9-0.3,2.4-0.9,2.8-1.5c0.4-0.6,1-0.5,0-1.7c-1-1.1-1.6-0.8-2.8-1.3
	c-1.2-0.5-2.6,0.4-3.3,0.4c-0.6,0-1.4-0.8-2.1-0.2c-0.7,0.6-1.6,0.7-2.1,0.7c-0.5,0-0.3,1-1.3,0.2c-1-0.7-1.9-0.4-2.4-0.4
	c-0.5,0-2.1,0-2.3-0.2c-0.2-0.2-0.5-1.3-0.9-1.3c-0.4-0.1-1.5,0-1.5-0.3c0-0.3,1.8-0.1,2.1-0.2c0.3-0.2,0-0.9-0.6-0.9
	c-0.6,0-1.5-0.4-1.5-0.4S148,89,147.5,89c-0.5,0-1.9,0.4-1.9,0.4s-0.5,0-0.9-0.2c-0.4-0.2-0.4-0.3-1-0.9c-0.5-0.6-1.1-0.4-1.5-0.4
	c-0.5,0-1.7,0-2.3-0.2c-0.6-0.1-1.4-0.3-1.5-0.2c-0.1,0.1-0.5,0.4-0.1,0.8c0.4,0.5,2.1,2,3.3,2c1.3,0,2-0.5,2.7-0.2
	c0.7,0.3,1.1,0.6,1.4,1.6c0.3,1,0.9,1.6,0.4,1.8c-0.5,0.2-0.9,0.6-0.8,0.8C145.4,94.7,145.9,95,145.9,95z M152.8,85
	c0,0,1.9,1.5,1.9,1.6c0,0.1-0.5,0.7-1,0.8c-0.5,0.1-1.2,0.1-1.5,0.2c-0.2,0.1-1.8,0.1-1.8,0.9c0,0.8,0.8,1.3,1,1.3
	c0.3,0,1.9-0.4,2.5-0.2c0.6,0.2,2,0.2,2.6,0.2c0.5,0,1.2,1,1.9,0.9c0.7-0.1,1-1.2,1.2-1.2c0.2,0,1.7,0.4,2.2,0.5c0.5,0,0.8-1,1.2-1
	c0.4,0,0.5,0.8,1,0.8c0.5,0,1.2,0.3,1.2,0.4c0,0.2-0.6,1.1,0.5,0.7c1.1-0.5,1.4-0.6,2.5-0.9c1.1-0.3,2-0.6,2.1-1.2
	c0.1-0.6-0.4-1.5-0.8-1.1c-0.4,0.4-1.1,0.6-1.5,0.3c-0.3-0.4-0.6-1-1-1.2c-0.4-0.2-1.9-0.3-1.9-0.3s1.9,0.2,3.3-0.1
	c1.4-0.2,1.1-0.9,1.3-1.1c0.2-0.2,0.6-0.8,0.9-0.8c0.3,0,1.9,0,2.4-0.6c0.5-0.7,1.3-0.9,1.3-1.4c0-0.5-1.1-1.2-1-1.8
	c0-0.6,1.1-1.3,1.3-1.5c0.2-0.2,2.3-0.1,3-0.4c0.7-0.3,1.3-0.8,1.5-1c0.2-0.2,0.9,0,1.6-0.3c0.7-0.2,1-1.5,2.1-1.9
	c1.1-0.5,1.1-0.3,2.2-0.6c1.1-0.3,2.4-1.9,3.9-2.4c1.5-0.5,3.4-1.5,3.4-2c0-0.5-4-0.3-3-0.6c1-0.4,5-1,5.3-1.3
	c0.3-0.3,1.7-1.1,2.3-1.1c0.6,0,1.6-0.1,1.5-1c-0.2-0.9-3.8-0.4-3.9-0.8c-0.2-0.4-0.5-0.9-2.1-1.4c-1.6-0.5-3.8-0.3-4.1-0.3
	c-0.4,0-5.4-0.8-6.7-0.7c-1.3,0.1-3.2,0.2-4.1,0.4c-0.9,0.2-3.2-0.2-4.2-0.1c-1,0.1-2.1,0-3.1,0.2c-1,0.2-1.4-0.2-2.9-0.2
	c-1.5,0-2.2,1.5-3.3,1.8c-1.1,0.3-1.7,0.5-2.2,0.6c-0.5,0.1-1.5,0.2-1.8,0.2c-0.4,0-2.1-0.6-2.1-0.6s-1,1.5-1.2,1.6
	c-0.2,0.1-1.7,0.1-1.8,0.1c-0.1,0-2.6,0.4-3.4,0.7c-0.8,0.3-1.4,0.2-2.4,0.2c-1,0-2.4,0.9-2.2,1c0.2,0.1,0.9,0.1,2,0.9
	c1.1,0.8,0.9,2.1,2.6,2.7c1.8,0.5,1.8,0.2,4,0.9c2.2,0.7,3.2,0.2,4.7,0.2c1.5,0,3.5-0.4,4-0.3c0.5,0,5.5-2,5.5-1.5
	c0,0.5-0.7,1-2.4,1.7c-1.7,0.7-3.5,1.2-4,1.3c-0.5,0.1-0.9,0.5-0.5,1.1c0.4,0.6,0.5,1.1,0.5,1.1s-3-2-3.3-2c-0.3,0-4.9,0.4-4.8,0.5
	c0.2,0.1,1,2,2,2s1.2-0.4,1.8,0.3c0.7,0.8,1,1.7,0.7,2c-0.2,0.3-1.3,0.5-1.6,0.5c-0.3,0-2.5,0.4-2.8,0.5c-0.2,0.1-1.6,0.2-1.4,1.2
	c0.2,1,0.6,1.6,1.3,1.3c0.7-0.3,1.6,0.2,2,0.1c0.4-0.1,0.7-0.4,0.7-0.4s-0.9,0.8-0.5,1.3c0.3,0.5,0.4,0.7,1,0.8
	c0.6,0.2,2.5,0.2,2.2,0.6c-0.3,0.5-1.8,0.8-2.6,0.5c-0.7-0.3-1.2-0.4-1.6-1c-0.4-0.7-1.1-1.2-1.2-1.2C154.9,84.4,152.8,85,152.8,85z
	 M152.1,82.2c0.1-0.3,0.8-1.1,1.1-1.1c0.3,0,0.9-0.1,1-0.3c0.2-0.2,0.1-0.5,0.7-0.6c0.6-0.1,1.4,0.1,1.5-0.3
	c0.1-0.3,0.5-0.6-0.7-1.3c-1.2-0.7-1.8-1.5-2.1-2.1c-0.3-0.7-0.3-1.3-0.8-1.2c-0.5,0.1-1.4,0.8-1.8,0.6c-0.4-0.2,0.8-0.9-0.4-1.1
	c-1.1-0.3-1.6-0.2-2.4-0.6c-0.8-0.4-1-0.5-1.7-1.5c-0.7-1-1.1-1.2-2.3-1.5c-1.2-0.3-1.3,0.7-1.9,1c-0.6,0.3-1.6,0.1-1.3,1
	c0.3,0.9,1,0.5,0.5,1c-0.5,0.5-1.7,0.7-1.7,0.7s-0.3,0.7-0.5,1.1c-0.3,0.4-1.3,0.1-1.1,0.6c0.1,0.5,1.1,1.1,2.2,1.7
	c1.1,0.6,1.3,0.4,3.1,0.6c1.8,0.2,3.4-0.2,2.5,0.4c-0.9,0.5-3.4,0.9-3.4,0.9s-0.8,0.3-0.2,0.6c0.6,0.3,1.6,1.7,2.8,2.2
	c1.2,0.5,1.2,0.5,2.6,0.5c1.4,0,2.3-0.3,2.3-0.3s0.3,0.5,1.1,0.3c0.8-0.2,1-0.5,1-0.5L152.1,82.2z M136.4,80.5l4.2,2
	c0,0,0.6,1.2,0.3,1.5c-0.3,0.3-1.1,0.6-1.3,0.7c-0.2,0-1.5,0.5-1.9,0.2c-0.4-0.4-0.6-1.4-1.1-1.7c-0.5-0.3-2.3-1.4-1.3-1.6
	C136.3,81.3,136.4,80.5,136.4,80.5z M139.4,85.4c0.1,0,1.4,0.2,2.3,0c0.9-0.2,2.1-0.2,2.1,0.2c0.1,0.4-0.2,0.7-1,0.7
	c-0.8,0-2.7-0.2-2.7-0.2L139.4,85.4z M147.4,86c0,0-0.4,0.8,1.1,0.9c1.5,0.1,1.5,0.1,1.2-0.5c-0.3-0.6-0.1-0.5-0.9-0.9
	C148,85.1,147.4,86,147.4,86z M132.8,81.9c0,0-1.2,1.3,0,1.7c1.2,0.4,1.6,0.2,1.4,0.7c-0.2,0.6-1,0.7-1.6,0.7s-0.9-0.7-1.8-1.1
	c-0.9-0.5-0.7-0.2-2.1-0.6c-1.4-0.4-0.6-0.6-1.5-0.4c-0.8,0.2-0.1,0.6-1.3,0.7c-1.2,0.1-1.8-0.7-1.6-1c0.2-0.3,3.6-0.7,2.4-1.3
	c-1.2-0.5-3-0.1-3.5-0.9c-0.5-0.8,0.6-1.3,1.2-1.2c0.6,0.1,3.7,0.5,4.1,0.9c0.4,0.5,0.7,0.6,1.6,0.8c1,0.1,2,0.4,2.4,0.4
	C133,81.4,132.8,81.9,132.8,81.9z M132.2,76.6c0,0-0.1,0.3,0.8,0.6c0.9,0.3,1.8,0.4,1.8,0c0-0.3,0.1-0.8-0.5-1
	c-0.6-0.2-1.3-0.4-1.5-0.4C132.6,75.9,132.2,76.6,132.2,76.6z M128.5,74.6c0.2,0,1.5,1.3,1.5,0.7c0-0.6,0.5-0.4-0.1-0.9
	c-0.6-0.5-0.7-0.9-1.1-0.6C128.4,74.2,128.5,74.6,128.5,74.6z M123,85c0.2-0.1,1.1,0.6,1.4,1.2c0.3,0.6,1.1,0.5,1,0.7
	c-0.1,0.2-0.2,0.7-0.9,0.6c-0.7-0.1-1.3-0.7-1.6-1.1c-0.3-0.4-0.5-1.3-0.5-1.3L123,85z M124.9,89.1c0,0,0.1,0.5,0.8,0.7
	c0.7,0.2,0.5,0,0.6,0.5c0.1,0.5,0,1.1,0.4,0.9c0.5-0.2,1-0.4,0.5-0.9c-0.5-0.5-0.5-0.9-0.8-1C126.1,89.2,124.9,89.1,124.9,89.1z
	 M128.9,90.5c0.2,0,1.2,0.5,1.1,0.8c-0.1,0.3-0.5,0.3-0.8,0.5c-0.3,0.3-2.4,0.2-0.9,1.2c1.5,1,4.3-0.2,4.1-0.2c-0.2,0,0.4,0.2,0,0.6
	c-0.3,0.4-1.3,0.9,0,1.3c1.3,0.4,1.2,0.5,2.2,0.1c1-0.4,1.1-1.1,1.4-1.4c0.3-0.3,0.4-0.4,0.4-1.3c0-0.9,1.1-1.5-0.1-2.3
	c-1.1-0.8-1-0.8-1.7-0.4c-0.6,0.4-0.7-0.3-1.3-0.2c-0.6,0.1-2-0.1-2,0.1c0,0.2,0.2,0.6,0.8,1c0.6,0.4,0.9,0.7,0.3,0.9
	c-0.6,0.2-0.8,0.4-1.4-0.4c-0.6-0.8-1.1-1.1-1.4-1C129.4,89.9,128.9,90.5,128.9,90.5z M125.9,93.7c0.2,0,1,0.2,0.8,0.8
	c-0.1,0.6-0.6,0.6-1,0.6c-0.4,0-1.4,0.2-1.1-0.3c0.3-0.6,0.7-1,0.7-1H125.9z M121.1,99.9c0,0-0.3,0.2,0.6,0.8c0.9,0.7,1,1.1,1.8,1.2
	c0.8,0.1,2.3-0.1,2-1c-0.4-0.8-0.9-1.6-1.3-1.6c-0.4,0-1.1,0.1-1.9,0.1C121.5,99.4,121.1,99.9,121.1,99.9z M102.7,91.1
	c0,0-0.5,0.3-0.9,0.4c-0.4,0.2-2.5,0.3-1.5,1.1c1,0.8,1.6,0.4,2,0c0.3-0.3,0.8-1,0.9-1.2C103.2,91.3,102.7,91.1,102.7,91.1z
	 M43.6,142.9c0,0-1.3,0.8-2.2,1.3c-0.9,0.5-0.8,1.8-0.4,1.8c0.4,0,0,1.8,1,0.6c1-1.2,2.7-2.3,2.7-2.3l-1-0.5l1.9-0.6l-1.1-0.6
	l-0.8-0.4L43.6,142.9z M30,150.3c0.2,0,1.1,0.8,1.8,0.6c0.7-0.2,0.3-0.6,0.3-0.6h-0.8H30z M24.4,150.9c-0.1,0-1.4,1.4-1.4,1.5
	c0,0.1,1-0.6,1.3-0.9C24.6,151.2,24.4,150.9,24.4,150.9z M22.4,151.8c0,0-0.9,1.4-0.6,1.3c0.3-0.2,1.1-0.8,1-1
	C22.6,151.9,22.4,151.8,22.4,151.8z M20.6,153.3c0,0-0.3,0.6-0.1,0.6c0.2,0,0.4-0.2,0.4-0.4C21,153.2,20.6,153.3,20.6,153.3z
	 M19.4,153.4c0,0,0.2,0.6,0.2,0.5c0.1-0.1,0-0.4,0.1-0.5C19.8,153.1,19.4,153.4,19.4,153.4z M18.4,154.7c0,0,1.1,0.2,1,0.1
	c-0.1-0.1-0.5-0.3-0.5-0.3L18.4,154.7z M17,154.7c0,0-0.4,0.8-0.1,0.8c0.3,0,0.7-0.3,0.6-0.6C17.5,154.6,17,154.7,17,154.7z
	 M71,143.3c0,0.1,1,1.1,1.6,2.2c0.6,1.1,1.8,2.6,1.8,1.5c0-1,0.1-1.7-0.6-2.5c-0.7-0.8-0.5-0.9-1-1.1C72.3,143.3,71,143.3,71,143.3z
	 M74.8,146.6c0,0,0.4,0.3,0.4,0.6c0,0.2,0.4,1,0.9,1.3c0.5,0.2,0.6,1.1,0.8,1.7c0.2,0.6-0.8,1-0.7,1.1c0.1,0.1,0.6,1.7,0.8,1.7
	c0.2-0.1,0,0.4,0.9,1.7c0.9,1.4,1.6,0.7,1-0.2c-0.6-0.9-0.2-2-0.3-2.4c-0.1-0.4-0.5-2.3-0.9-3.1c-0.5-0.8-1-1.2-1.4-1.4
	C75.8,147.3,74.8,146.6,74.8,146.6z M85.3,160.3c0.3,0,2.8,0.4,3.5,0.8c0.8,0.4,2.1,1.5,2.5,1.9c0.4,0.4,1.2,1,1.3,1.4
	c0.1,0.4,0.6,0.3,0.2,0.8c-0.4,0.6-1.4,0.2-2,0c-0.5-0.2-1.4-1.2-2.4-1.8c-0.9-0.6-1.6-0.9-2.1-1.1c-0.5-0.2-1.1-0.4-1.2-1.1
	C85.1,160.6,85.4,160.3,85.3,160.3L85.3,160.3z M161.2,214.1c0,0-3.8,1.2-3.3,1.9c0.6,0.7,2.4-0.1,2.4-0.1l2.3-0.9
	c0,0,1.3,0.4,2,0.8c0.7,0.4,1.2,0.4,1.9,0.6c0.7,0.2,1.6,1.1,2.1,1.1c0.5,0.1-0.9-2.3-1.2-2.4c-0.2-0.1,0.1-0.2-1.5-0.4
	c-1.6-0.2-1.6,0.1-2.7-0.3C162.1,214.1,161.2,214.1,161.2,214.1z M168.8,217.8c0,0-0.1,0.4,0.6,0.7c0.6,0.3,2.2,0.4,2.2,0.4
	s-1.4,0.7-1.2,1c0.2,0.3,1.4-0.3,2-0.2c0.6,0.1,1.9,0.5,2.7,0.2c0.8-0.3,0.6-1.2,0.3-1.2c-0.2,0-1.9-0.4-2.2-0.7
	c-0.3-0.2-1.3-0.3-1.9-0.7c-0.6-0.4-1.6-0.6-1.6-0.6L168.8,217.8z M176.5,222.1c0,0,0.8-0.9,1.2-1c0.4-0.1,2-0.7,2.3-0.6
	c0.3,0.1,1.3-0.8,1.7-0.8c0.4,0,2.7,0.8,2.7,0.8s-0.3,0.5-0.2,0.8c0.1,0.4,1.1,0.9,0.7,1c-0.3,0.2-2.5-0.3-2.7,0.1
	c-0.2,0.4,0,1.3-1.2,1.2c-1.2-0.1-1-0.9-1.4-1.2c-0.3-0.3-1.3-0.9-1.3-0.9L176.5,222.1z M189.9,222.4c0,0-2.1,0-1.7,0.2
	c0.3,0.2,1.5,0.6,1.8,0.3C190.2,222.8,189.9,222.4,189.9,222.4z M177.7,217.6c-0.1,0.2,0.2,0.6,0.4,0.6c0.2,0,0.4-0.6,0.4-0.6H177.7
	z M179.6,216.9l1.3,0.2c0,0,0-0.5-0.2-0.5C180.6,216.6,179.6,216.9,179.6,216.9z M175.7,215.4c0,0,0.3,0.2,0.6,0.5
	c0.3,0.3,0.6-0.5,0.6-0.5l-0.8-0.3L175.7,215.4z M169.5,222.7c0,0,0.7,0,1.8,0.1c1.1,0.1,1.2,0.3,1.4,0.4c0.2,0.2-0.3,0.3-0.6,0.4
	c-0.3,0.1-1.2,0.4-1.3,0.4C170.6,224.1,169.5,222.7,169.5,222.7z M160.4,239.2c0,0,0.7-0.7,1-0.7c0.3,0,0.7-0.2,0.9-0.1
	c0.2,0.1,0.7,0.3,0.9,0.3c0.2,0,0.8,0.5,0.8,0.5s0.3,0.4,0.9,0.2c0.6-0.2,0.6-0.7,1.2-0.8c0.6-0.1,1.7-0.6,2-0.6
	c0.4,0.1,0.9,0,1.5,0.2c0.5,0.2,1.4,0.8,1.5,1c0.1,0.2,1.1,0.9,1.1,0.9s0.2-1.1,0.7-1.4c0.6-0.4,0.8-0.4,1.2-0.8
	c0.4-0.4-0.1-1.1,0.2-1.7c0.2-0.6,0.1-0.6,1-1.2c0.9-0.7,1.9-0.7,2.1-0.7c0.2,0,2.1-0.4,2.2-0.6c0.1-0.2,1-0.3,1.3-0.3
	c0.2,0,0.2,0.3-0.3,0.8c-0.5,0.5-0.9,1.7-0.5,1.8c0.4,0.1,0.8,0.7,0.3,1.1c-0.5,0.4,0.8,1,1.1,0.6c0.3-0.4-0.6-1.1-0.6-1.4
	c0.1-0.3,0.6-0.9,0.6-0.9s1.1-0.4,1.3-0.4c0.2-0.1,0.8,0,1-0.3c0.2-0.3,0.5-0.7,0.6-0.3c0.1,0.3,1.3,0.4,1.4,0.4
	c0.2,0,0.5,1.2,0.8,1.4c0.2,0.2,0.9,0.3,1.3,0.2c0.3-0.1,1.2-0.6,1.2-0.6s0.4,0.5,1,0.5c0.6,0,0.9,0.4,1.6,0.4
	c0.7,0,1.8-0.3,1.8-0.3l1.4-0.2c0,0,0.7-0.7,0.8-0.5c0.1,0.2,0.1,1.2,0.1,1.2s0.2,0.5,0.7,0.5c0.5-0.1,1.8,0.1,2.1,0.3
	c0.3,0.3,0.7,1.7,0.7,1.7s0.5-0.1,1.1,0.2c0.6,0.3,1.2,0.6,1.2,0.6s0.2,1.2,0.4,1.3c0.2,0.2,0.9-0.3,1,0.1c0.1,0.3-0.1,0.4,0.2,0.7
	c0.3,0.3,0.2-0.1,0.9,0.7c0.8,0.7,0.3,1,0.8,1c0.5,0,2.9,0.7,4.2,0.1c1.2-0.5,1.8,0.1,1.9,0.2c0.1,0.2,0.5,0.3,1.3,0.6
	c0.8,0.3,1.2,0.2,2.5,0.6c1.2,0.4,0.7,1.2,0.7,1.9c0.1,0.8,0.4,1.5,0.5,2.1c0.1,0.6,0.1,0.9,0.7,1.3c0.6,0.4,1.1,0.7,0.8,1
	c-0.2,0.3-1,0.1-0.9,1.2c0.1,1.1-0.3,1.2,0.3,1.4c0.6,0.2,2.5,0.1,2.8,0.2c0.3,0.1,0.6,0.7,0.6,0.7s1.3-0.4,1.8-0.1
	c0.5,0.3,1.7,0.7,2.8,1c1.1,0.3,2.8,1,3.2,1.5c0.4,0.6,1.3,0.7,3.2,1.2c1.9,0.5,3.1-0.3,3.3-0.1c0.3,0.2,3.1,1.9,3.4,2.6
	c0.4,0.7,1,0.7,2,1c1,0.3,2.1,0.4,2.4,1.4c0.4,0.9,1.1,3.2,0.4,4.8c-0.7,1.5-3.1,4.1-4,4.8c-0.9,0.7-0.3,2.1-1.1,2.3
	c-0.8,0.3-1.3-0.1-1.3-0.1s-0.3,2.4-0.5,3.3c-0.2,0.9,0.6,2.3,0.4,2.9c-0.2,0.6-0.2,1.9-0.7,2.6c-0.4,0.7-0.9,1.4-1,1.9
	c-0.1,0.6-0.7,2.3-1.1,2.6c-0.4,0.3-0.3,1.4-0.7,2.4c-0.4,1-0.8,1.2-1.9,1.5c-1.1,0.3-1.9,0.9-2.8,1c-0.8,0.1-2.1,0-2.1,0
	s-0.9,0.9-1.4,0.9c-0.5,0-1.5,0.1-1.5,0.1s-1.3,1.9-2.1,2.3c-0.7,0.4-1.3,2.2-1.3,2.2s0.1,2.6-0.4,3.6c-0.4,1.1-2.6,2.2-2.4,2.6
	c0.2,0.4,0.6,1.1-0.1,1.5c-0.7,0.4-1,1.2-1.5,1.9c-0.6,0.7-1,1-1.6,1.3c-0.6,0.3-0.4,0.8-0.8,1.4c-0.4,0.6-0.8,1.4-1.1,1.4
	c-0.3,0-1.1-0.1-1.2,0.9c-0.1,1-0.8,1.4-1.4,1.5c-0.5,0.1-1.4,0.3-1.7,0.1c-0.3-0.2-0.3-0.6-0.9-0.6s-1.1,0.1-1.2-0.1
	c-0.1-0.2-0.3-0.5-0.7-0.5c-0.4,0-1.6-0.7-1.6-0.4c0,0.3,0.7,1.7,0.9,1.8c0.2,0.1,0.8,0.7,0.8,1c0.1,0.3,0.4,1.3,0.4,1.3
	s1.1,0.1,0.6,0.8c-0.5,0.7-1.4,2.3-2.1,3.1c-0.7,0.7-2.3,1.1-3.5,1.3c-1.2,0.2-3.7,0-3.7,0l-0.2,4.2c0,0-0.6,0.7-1.5,0.7
	c-0.9,0.1-1.9-0.9-2.2-0.9c-0.3,0-1.1,0.1-1.1,0.1s-0.1,1.5,0,2.2c0.1,0.6,1,0.7,1,0.7s0.4,0.3,0.5,0.2c0.2-0.1,0.9-0.7,1.2-0.1
	c0.2,0.6,1.2,0.7-0.3,1c-1.5,0.3-1.5-0.3-1.5-0.3s-0.4,0.9-0.7,1.3c-0.3,0.4,0.1,1.1-0.3,2.2c-0.4,1.1-0.3,1.5-0.6,1.4
	c-0.2-0.1-2.5-0.1-2.5-0.1s-1.2-0.1-1.1,1.9c0.2,2,3.3,2.8,3.3,2.8s-0.2,0.8-0.2,1.3c-0.1,0.4-0.1,0.9-0.3,0.9
	c-0.2,0-2.9,0.7-2.9,1.7c0,1.1,0.2,1.8,0,2.1c-0.2,0.2-1.1,0.2-1.8,0.6c-0.7,0.4-1,1.2-0.7,1.8c0.3,0.6,1,2.4,1,2.4s0,0.2-0.6,0.2
	c-0.6,0-0.6-0.2-1.3,0.1c-0.7,0.3-1.4,0.6-1.7,1c-0.3,0.4,0,2.2-0.7,2.3c-0.7,0.1-2.1-0.6-2.3-0.8c-0.2-0.2-2.3-1.9-2.6-2.3
	c-0.3-0.4-1.6-0.3-1.6-0.3s0.1-2.2,0-2.4c-0.1-0.3-0.6-2.1-0.6-2.6c-0.1-0.5,0.2-1.2-0.1-2.1c-0.2-0.9-0.1-2.3,0.2-2.5
	c0.3-0.2,2.4-1.4,2-2.2c-0.4-0.8-1.8,0.2-1.6-0.7c0.2-0.9,0.6-1.3,0.8-2.4c0.2-1.1,0.2-1.8,0.3-2.3c0.2-0.6,0.8-0.4,1,0.3
	c0.2,0.7,0.7,2.2,0.8,1.7c0.2-0.6-0.2-2.1,0.6-3.6c0.8-1.5,0.3-2.2,0.2-3.1c-0.2-0.9-0.9-0.3-1.6-0.7c-0.7-0.4-0.4-1.9-0.2-2.3
	c0.2-0.4,1.3-1.8,1.3-2.4c-0.1-0.6-0.2-1.4-0.5-1.8c-0.3-0.4-1.4-0.9-0.6-1.9c0.8-1,1.6-0.5,2-2.4c0.4-2,0.9-2.7,1.2-3.8
	c0.3-1.1,0.6-1.2,0.5-2.8c-0.1-1.7-0.3-2.3-0.3-2.9c0-0.6,0.1-1.8,0.4-3.1c0.3-1.3,0.4-1.8,1.1-4.2c0.7-2.4,0.7-4.6,0.8-6.7
	c0.2-2.2,0.5-3.3,0.5-4.4c0-1.1-0.1-3-0.5-3.6c-0.4-0.6-1.9-2.8-3.6-3.6c-1.7-0.8-2.1-1.6-4.5-2.5c-2.4-0.9-1.8-1.5-1.9-2.3
	c-0.1-0.8-0.6-1.6-1.2-2.3c-0.6-0.7-1-1.7-1.8-3.1c-0.7-1.4-0.7-2.8-1.6-4.1c-0.9-1.2-1.7-2.9-2.3-3.3c-0.6-0.4-1.3-0.2-1.3-0.2
	s-0.1-1.3-0.1-1.7c0-0.3-0.7-0.3-0.5-1.3c0.2-1,1.8-0.9,2.1-1.8c0.3-0.9,0.4-1.7,0.4-1.7s-0.9-0.6-1.4-1.9c-0.4-1.3,1.2-2.5,1.5-2.8
	c0.2-0.3,0.5-0.9,1.2-1.5c0.7-0.7,0.7-1.5,0.9-1.9c0.2-0.4,1.2-0.9,1.3-0.9c0.2,0,1.3-0.4,0.7-1.6c-0.7-1.2-0.1-2.3-0.1-2.3
	s0.3-1.9,0.3-2c0-0.2-0.3-0.9-0.5-1.2c-0.2-0.3-0.6-0.8-0.8-1.1c-0.2-0.3-0.2-1-0.4-1.3c-0.2-0.3-0.2-0.7-0.8-0.8
	c-0.6-0.2-0.9,0-1.4,0.5c-0.4,0.5-1.3,0.4-1.2,0.8c0.1,0.4,1.5,0.5,0.4,1.1c-1,0.6-2,0-1.9-0.2c0.1-0.2-0.6-1-0.6-1l-1.6,0.1
	c-0.8,0.1-1.9-0.7-1.9-0.7L160.4,239.2z M183.5,280c0,0.3,0.3,1.2,0.5,1.4c0.2,0.2,1.9,1.4,1.9,1.4s1.5-0.1,0.3-0.8
	c-1.2-0.7-1.4-0.7-1.6-1.3C184.2,280.1,183.5,280,183.5,280z M176.4,353.6c0.2,0,2.4,2.6,3.1,3c0.6,0.3,2.2,1,2.8,1.1
	c0.6,0,1.9-0.2,2.1-0.1c0.2,0.1,2.4,0.1,2.4,0.1h1.9c0.3,0,0.9,0.4,1.5,0.2c0.6-0.2,1.1-0.6,1.1-0.6s-1.3-0.5-1.8-0.7
	c-0.5-0.2-1.5-1.1-2.1-1.6c-0.6-0.5-0.7-0.7-1.1-1.4c-0.5-0.7-1.6-1.6-1.7-1.6c-0.2,0-1.3,0.8-1.3,1.1c0,0.4,0.9,0.9,0.9,0.9
	s0.2,0.5,0,0.7c-0.2,0.2-0.9,0.6-1.1,0.7c-0.3,0.1-0.2,0.1-1,0.2c-0.8,0.2-1.1-0.2-1.9-0.6c-0.7-0.4-1.9-1.1-2.3-1.3
	C177.4,353.6,176.4,353.6,176.4,353.6z M176.3,329.2c0,0.2-0.4,2.9,0.3,3.1c0.7,0.2,1.5,0.2,1.1-0.8c-0.4-1-0.3-2.1-0.3-2.1
	L176.3,329.2z M206.7,158.5c0,0-0.7,0.7-1.5,1.6c-0.7,0.9-0.9,2.2-1.3,2.7c-0.3,0.4-1.2,1.9-1.5,2.2c-0.3,0.2-1.5,1.7-0.9,2.1
	c0.6,0.3,1.2,0.1,2.5,0.1c1.3,0,3.3,0.3,3.3,0.3s0.9-0.4,1.1-0.5c0.2-0.1,1.1,0,1.1,0s-0.1-0.2,0.7-0.3c0.8-0.1,1.9-2.2,1.3-2.2
	c-0.6,0-1.3,0.6-1.1-0.1c0.2-0.7,1.3-0.4,0.4-1c-0.9-0.6-2.1,0-2.8-0.3c-0.7-0.2-0.5-0.1-0.8-0.9c-0.4-0.7-0.6,0-1.1,0.2
	c-0.5,0.2-1-0.2-0.4-0.8c0.6-0.6,1.1-1.1,1.4-1.7c0.3-0.7,0-1.6,0-1.6L206.7,158.5z M210.8,167.3c0,0-0.9,1.8-0.3,1.9
	c0.6,0.1,1.3-0.1,1.6-0.2c0.3-0.1,0.8-0.2,0.9-1c0.1-0.8-0.4-1-0.6-1c-0.2,0-0.2-0.4-0.5-0.4C211.4,166.7,210.8,167.3,210.8,167.3z
	 M178.2,83.9c-0.4-1,0.5-1.8,1.3-1.8c0.8,0,7.3-1.9,8.8-2.1c1.5-0.2,2.9-2.6,2.4-2.7c-0.5-0.1-3.5-1-3.5-1s2.5-2.3,3.8-2.8
	c1.3-0.4,2.9-1.5,4.2-1.3c1.3,0.2,2.1,0.4,1.4-0.7c-0.7-1.2-0.1-2.2-0.1-2.2s8.1-1.7,10.2-1.7s3.1,0.3,4,0.6
	c0.9,0.3,1.4,1.1,2.9,0.7c1.5-0.3,2.7-2.2,3.2-2.2c0.5,0,3,1.6,4,2.1c1,0.5,1.6,1.1,3.2,1.4c1.6,0.3,2.9,0.1,2.9,0.1
	s-4.6-1.2-4.3-3.1c0.3-1.9,2.3-2.4,4.5-3c2.2-0.6,4-0.2,4-0.2l3.4,0.2l2.6-1.8c0,0,7.4,0.1,9.2,0.1c1.8,0,5.4-0.6,7.6-0.3
	c2.3,0.3,3.5,0.2,4.2,0.9c0.7,0.7,6.9,2.4,7.8,2.6c1,0.2-2.6,1.7-2.6,1.7s-11.1,0.3-13,0.5c-1.9,0.2-4.7,1-4.1,1.3
	c0.6,0.3,3.9-0.7,5.4-0.4c1.5,0.3,5-0.1,5.4-0.1c0.3,0,2.2,0.4,2.7,0.7c0.5,0.3,3.9-0.7,3.9-0.7l1,1.4c0,0-2.9,1.3-2.8,1.7
	c0.1,0.4,1.3,0.2,2,0.2c0.8,0,8-2.6,11.1-2.6c3.1,0,5.6,0.3,6,1.3c0.4,1-0.7,1.2-1.5,1.6c-0.9,0.4-2.5,1.2-3.5,1.3
	c-1.1,0.1-1.9,0.4-1.9,0.4s-0.9,1.7-1.6,1.7c-0.7,0-0.9,0.8-0.9,0.8s0.9,0.7-0.5,2c-1.4,1.3-2.5,1.7-2.5,2.2c0,0.4-0.2,5.2-0.2,5.2
	s1.9,0.9,2.1,1.8c0.2,1-0.9,0.1-1.7,0.4c-0.9,0.3-1.3-0.3-1.9,0.2c-0.6,0.5-2.2,0.4-1.2,1.2c1.1,0.7,3.4,1.9,3.5,2.9
	c0.1,1-0.7,1.8-1.1,1.8c-0.3,0,0.6,3.2,0.6,3.2s0.1,0.1-1.3,0.1s-2.8,0.3-2.8,0.3s1.9,1.5,2.3,1.1c0.4-0.4-0.6,0.9-1.8,1.3
	c-1.1,0.4-3.9-0.4-3.1,0.2c0.8,0.6,2.1,2.3,2,2.7c-0.1,0.4-0.7,0.8-1.3,0.7c-0.6-0.1-2.7-1.4-2.9-1.3c-0.2,0,0.6,1,1.1,1.3
	c0.5,0.3,3.6,2.7,3.9,3.4c0.3,0.7,0.6,1.2-0.6,1.9c-1.2,0.6-2.5-0.3-2.7-0.4c-0.1-0.1-0.7-2-1.1-2c-0.3-0.1-1.9-0.1-1.9-0.1
	s-0.3,0.8-0.2,1.2c0.2,0.4,1.1,0.6,1.1,0.6s-1.7,1-1.9,1c-0.3,0.1-0.8,0,0.4,0.4c1.1,0.3,2-0.4,2.7,0c0.7,0.3,1.1,0.8,2.3,0.8
	c1.1,0,0.9-0.1,0.9-0.1s-0.1,1-1.7,1.4c-1.6,0.4-2.8,1.8-3.6,2c-0.8,0.2-2.6,1.3-3.4,1.4c-0.8,0.2-1.7,0.7-3,0.6
	c-1.3,0-2.5,0.3-2.5,0.3l-0.1-1.4c0,0-0.8,1.1-1.9,1.9c-1.1,0.8-2.8,3.2-3.6,3.9c-0.8,0.6-1.5,0.9-2.7,1.2c-1.1,0.3-2.9,0.8-3,0.9
	c-0.2,0,0.6-1.2,0.6-1.2s-0.9,0.1-1.2,0.3s-0.1,0.6-0.7,0.8c-0.6,0.2-0.7,0.2-1.5,0.4c-0.9,0.3-0.6,1-0.9,1.7
	c-0.4,0.8-1.6,0.4-1.6,0.4l0.3,0.8l-0.1,0.8c0,0-1,0.7-0.8,1.1c0.1,0.3,1.1,0.1,0.3,1c-0.7,0.9-1.7,1.9-2.1,2.2
	c-0.4,0.3-0.9,0.5-0.8,0.9c0.2,0.4,0.2,0,0.3,0.5c0.1,0.5,0.8,0.7,0.3,1.3c-0.5,0.7-0.8,2.3-1.1,2.8c-0.4,0.5,0.1,1.5-1.4,1.5
	s-2.2-0.2-2.9-1c-0.7-0.8-1.2-1.1-1.4-1.3c-0.2-0.2-2.5,0.2-3.1,0.1c-0.6-0.1-0.8-1-1.4-1.1c-0.6-0.1-0.7-1.2-1-1.5
	c-0.3-0.3-0.2-0.8-0.6-1.5c-0.5-0.8-2.2-2.5-2.5-3c-0.2-0.4,0-1.6,0-1.6s-1.2-0.6-1.5-1.3c-0.2-0.7,0.8-1.5-0.4-2.1
	c-1.2-0.5-1.8-1.6-1.8-2c0-0.5,0.9-1.1,0.6-1.6c-0.4-0.6-1.4-0.8-0.9-1.9c0.5-1.1,1.9-2.4,2.2-2.8c0.3-0.4,1.6-1.1,1.8-1.2
	c0.2-0.1,0.9-1.1,0.9-1.7c0-0.6-0.5-0.8-1.5-1.5c-0.9-0.7-2-1.1-2-1.1s-0.2-0.3-0.9-0.4c-0.8-0.1-2.2-0.1-1.8-0.7
	c0.4-0.6,1.3-0.5,2.2-0.3c0.9,0.2,1.9,0.6,2.4,0.4c0.5-0.1,1.1-0.6-0.1-1.1c-1.2-0.5-2.6-0.9-2.8-1.3c-0.2-0.4-0.7-0.5-2.1-0.5
	c-1.4,0-1.9-0.5-1.3-1.2c0.6-0.7,1.1-0.4,1.1-1.8c0-1.4-1-1.7-2.2-4.3c-1.2-2.6-0.3-2.8-2-3.1c-1.7-0.3-2-0.6-2.1-1.3
	c0-0.7,1.1-1.4-0.6-1.6c-1.7-0.2-3.1-1.8-3.1-1.8s-1.8,0.3-2.3,0.1c-0.5-0.1-3.2-0.3-3.6-0.2c-0.4,0.1-2.9-0.2-2.9-0.2
	s0,0.7-1.2,1.1c-1.2,0.4-3.1-0.5-3.4-0.6c-0.3,0-2.4-1.5-2.6-2.2c-0.2-0.7-0.9-0.9-0.9-0.9s1.9-1.1,3-1.1c1.1,0,1.6-0.6,1.6-0.6
	s-3.6-0.7-4.5-0.6c-0.9,0.1-2.6-0.6-2.6-0.6l-1.4-0.7L178.2,83.9z M209.9,110c0,0-0.8,0.5-0.8,1.1c0,0.6,0.6,0.8,1,1.1
	c0.4,0.3,2,1.3,2.8,0.6c0.8-0.6,0.5-1.1,0.2-1.2c-0.3-0.2-0.5-0.9-1.1-1.2C211.3,110.2,209.9,110,209.9,110z M315.9,177.6
	c0,0,0.2,2.3,0.4,2.3s0.9-0.6,1.1-0.9c0.2-0.3,0.6-0.9,0.5-1.1c-0.2-0.2-0.8-0.7-0.8-0.7L315.9,177.6z M316.2,180.5
	c0,0-0.5,1.6-0.5,1.9c-0.1,0.2-0.7,1.8,0.1,2c0.8,0.2,1.3,0.2,1.6-0.1c0.3-0.3,1.3-1,1.1-1.7c-0.2-0.7-0.5-2-0.7-2
	S316.2,180.5,316.2,180.5z M322.1,186.4c0.2,0.7,0.5,2.1,1.1,2c0.5-0.1,1.9,0.2,2.4,0.2c0.5,0,1.9,1.6,1.8,0.5
	c-0.1-1.2,0-1.4,0.2-1.6c0.2-0.2,0.4-1.1,0.1-1.1c-0.3,0-0.8-0.1-1.3,0.2c-0.5,0.2-1.3-0.4-1.9-0.5c-0.5-0.1-1.1,0.4-1.3,0.5
	C322.8,186.5,322.1,186.4,322.1,186.4z M335.2,186.9l0.4,1.1c0,0,0.8,0.4,1.1,0.6c0.3,0.2,1.4,0.6,1.4,0.6s-1.5-1.1-1.7-1.1
	C336.2,188,335.2,186.9,335.2,186.9z M340.9,186.9l0.5,0.7l0.7-0.6c0,0,0.1-0.3-0.2-0.3C341.7,186.7,340.9,186.9,340.9,186.9z
	 M323.8,229.8c0,0-0.4,1.1,0.2,1.7c0.7,0.6,0.4,1.4,1.1,1.4c0.7,0,1.6-1,1.6-1s-1-0.2-1.2-0.2c-0.2,0-0.9-0.8-0.8-0.9
	c0.1-0.2-0.1-0.7-0.1-0.7L323.8,229.8z M355,254.8c0,0-0.4,2.5,0,3.3c0.4,0.8,1.2-0.3,1.2-0.3s1.1,0.4,1.4-0.1
	c0.3-0.5,0.7-2.1,0.7-2.1s1.2-0.5,0.5-1.3c-0.7-0.8-1.2-0.2-1.6-0.2c-0.4,0-1.6,0.4-1.6,0.4L355,254.8z M351,260.5
	c0,0,0.5,2.7,0.6,3.6c0.1,0.9,1.4,1.2,1.4,1.2s1.2,1.5,1,2.5c-0.2,1-0.9,0.6-0.9,0.6s-0.7-2-1.4-2.5c-0.7-0.5-1.3-2.2-1.2-3
	C350.6,262.1,351,260.5,351,260.5z M358.2,270.3c0,0,1,1.1,1,2.3c0,1.2-0.8,2-0.3,3.2c0.5,1.2,1.3,3.1,1.7,2.5
	c0.4-0.6-0.5-2-0.2-2.9c0.3-0.9,0.2-1.1,0.2-1.5c0-0.4-0.6-0.8-0.5-1.5c0.1-0.7-0.2-1.5-0.2-1.5L358.2,270.3z M383.6,185.7
	c-0.1,0.3,0.9-0.2,1.6-1.5c0.7-1.3,0.1-2,0.1-2s-0.4-0.9-0.9-1.4c-0.5-0.5-0.7-1.4-1.6-2.3c-0.9-0.9-0.6-2-0.9-2.5
	c-0.3-0.5-0.4-1.6-0.4-1.6l-0.7-1.1c0,0,1.4-2,1.7-2.2c0.3-0.2,1.1-0.3,1.6-0.7c0.5-0.4,1-0.9,1.3-0.8c0.3,0.1,1.8-1.1,2.1-1.1
	c0.3,0,3.5,1,3.5,1l0.7,0.9c0,0-1.4,0.6-1.4,1c0,0.4,0.6,0.7,0.6,0.7h-1.8c-0.5,0-0.7,0.8-1.1,0.9c-0.4,0.1-1.4,0.6-1.4,0.6
	s1.1,0.6,1.6,1.5c0.5,0.9,0.8,1.4,1.1,1.8c0.3,0.4,1.2,0.6,1.2,0.6l-0.1,2.6c0,0,0.3-0.7,1.3-1.1c1-0.4,1.3,0.4,1.3,0.4
	s1.2,1,0.8,1.3c-0.4,0.3-0.5,0.7-1.5,0.3c-1-0.4-1.2,0.5-1.5,0.8c-0.3,0.3-0.2,0.4,0.4,1.3c0.6,0.9,0.7,2.5,1,3
	c0.3,0.5,0.5,0.8,0.3,1.5c-0.2,0.7,0.1,1.1-0.7,1.2c-0.8,0.1-2.8,0.5-3.6,0.3c-0.8-0.1-2.6-1.4-2.9-1.4
	C385,187.7,383.7,185.4,383.6,185.7z M400.4,172.1c0,0-1,0.8-0.5,1.2c0.5,0.4,2,0.4,2,0.4s1.2,0.3,1.1-0.2c-0.1-0.5-0.1-1.6-0.1-1.6
	l-0.4-0.4l0.2-0.8h0.4l0.1-0.6c0,0,0.6,0.4,0.6-0.2c0-0.6-0.9-0.7-0.9-0.7l-0.1,0.6c0,0,0.2,0.1,0,0.4c-0.1,0.3-0.4,0-0.5-0.1
	c-0.1-0.1-0.2,0.1-0.2,0.2c0,0.1,0,0.6-0.1,0.8c0,0.2-0.3,0.2-0.3-0.1c0-0.3-0.5-0.1-0.5,0.1c0,0.2-0.4,1.1-0.5,1
	c-0.1-0.1-0.3-0.6-0.3-0.6L400.4,172.1z M426.1,172.4c-0.2-0.1-0.8-0.4-0.5-1.2c0.4-0.9,0.8-1,1.1-1.5c0.4-0.6,1.1-1,1.1-1l2.9,0.4
	c1.3,0.2,2.6,0.1,3,0c0.4-0.1,1.7,0.7,1,0.7c-0.7,0-3.2,0-4.1-0.3c-1-0.2-1.9-0.3-2.1-0.1c-0.3,0.2-1,0.6-1.4,1.2
	c-0.4,0.7,0,0.7-0.5,1.4C426.1,172.8,426.1,172.4,426.1,172.4z M476.4,157.9c0.8-0.4,1.9-0.3,3.1-0.9c1.1-0.6,2.5-2.1,2.9-2.5
	c0.4-0.4,2.2-1.6,2.5-2.2c0.3-0.6,0.1-1.6,0.8-2c0.7-0.4,1.7-0.7,1.1,1c-0.6,1.7-0.8,2.3-1.9,3.2c-1.1,0.9-1.2,1.4-2,1.7
	c-0.8,0.3-1.5,0.7-1.5,0.7s-1.6,1.2-1.8,1.3c-0.2,0.1-1.8,0.6-2,0.5C477.1,158.7,476.4,157.9,476.4,157.9z M382.8,152.3
	c-0.3,0,0.6,0.5,1,1c0.3,0.6,0.7,1.8,0.9,1.4c0.2-0.4-0.2-0.8,0.2-1.3c0.3-0.5,0.2-1.1,0.2-1.1s-1.6,1-1-0.2c0.5-1.2,0.7-2,0.9-2
	c0.2,0,1.9-0.6,1.9-0.6s-2.3-0.6-2.8,0.4c-0.5,1-0.9,1-0.9,1.3C383.2,151.7,383.1,152.3,382.8,152.3z M363.6,141.3
	c0,0,0.2,1.4,1.7,2c1.4,0.5,0.8,0.2,1.3-0.2c0.4-0.3,0.5-1.3,0.2-1.3c-0.4,0-1.1-1-1.1-1l-0.9,1.3L363.6,141.3z M359.1,133.1
	c0,0,0.1,1.5,0.9,1.7c0.8,0.2,1.1,0,1.2,0.4c0.1,0.4-0.4,1,0.5,0.5c0.9-0.5,1.6-0.8,1-1.3c-0.5-0.4-0.9-0.6-0.9-1.3
	c0-0.6,0.3-0.8-0.5-1.3c-0.8-0.5-2-0.9-2-0.9s1.5,0.5,1.4,1.3c-0.1,0.8-0.1,0.8-0.6,0.6C359.9,132.8,359.1,133.1,359.1,133.1z
	 M354.1,134.3c-0.2,0,1.2,0.1,1.1,0.5c-0.1,0.4,0.5,0.5,0.9,0.8c0.5,0.2,0.9,0.6,0.3,1.3c-0.6,0.7-1,0.8-1.3,1
	c-0.2,0.2-1.7,0.6-1.7,0.6s0-1.7-0.5-2c-0.5-0.3-0.9-1.5-0.5-1.6C353,134.7,354.4,134.3,354.1,134.3z M384.9,274.8l-0.8,0.8
	c0,0,0.5,1.1,0,1.5c-0.5,0.4-1,0.3-1.6,1.3c-0.7,1-2.3,2-3.1,2.4c-0.8,0.4-2.2,0.5-2.6,0.9c-0.5,0.4-0.6,3.1-0.6,3.1s1,2,0.6,2.8
	c-0.5,0.8-1.8,1.8-1.9,2.6c-0.1,0.8-0.8,2.4-0.4,3c0.4,0.5,0.5,1.5,0.5,1.5s-0.2,2,1.2,2.7c1.4,0.7,1.2,0.4,2,0.3
	c0.8-0.1,1.5-0.3,1.9-0.3c0.4,0,0.9-0.7,1.6-2c0.7-1.3,1.5-4.5,2.2-6.4c0.7-2,0.9-3.8,1.2-4.5c0.3-0.8,0.3-1.2,0.8-2.3
	c0.5-1.1,1.1-0.6,0.8-1.7c-0.3-1.1-0.7-0.6-0.8-2c-0.1-1.5,0-2.3,0-2.3L384.9,274.8z M436.9,238.1c0,0-1.1,0.4-0.8,2
	c0.3,1.6,0.8,2.6,0.7,3.3c-0.1,0.7,2.1,0.9,2.6-0.4c0.5-1.3-0.5-2.6-0.5-2.6l-1-1.8L436.9,238.1z M468,236.6c0,0-1.7,1.1-0.6,2.3
	c1.1,1.2,2,3.9,2,3.9h1.3l0.4,1.9c0,0,0,2,0.9,3c0.9,1,2.2,3.1,3.4,3.5c1.2,0.4,2.1,1.4,1.4-0.5c-0.7-1.9-1.4-4.4-1.2-4.8
	c0.2-0.4,0-1.1-0.6-1.6c-0.6-0.5-0.9-0.5-2.4-1.9c-1.5-1.4-2.2-2.2-2.1-2.6c0.1-0.4-0.5-1.1-0.9-1.4
	C469.2,238.1,468,236.6,468,236.6z M462.7,244.6c0,0,0.8,0,2,0.2c1.2,0.2,1.7-0.2,2.3,1c0.6,1.2,0.6,1.7,2.3,2.9
	c1.7,1.2-0.1,1,2.4,2c2.5,1,2.6,1.1,2.6,1.1l1.1,0.9c0,0,0.5,0.3,0.7,0.8c0.2,0.5-0.5,0.7-0.1,1.5c0.4,0.8,1.3,1.1,1.3,1.1
	s1.2,1.4,1.6,1.7c0.4,0.3,0.9,1.4,1.1,2.1c0.2,0.7,0.7,2.2,0.1,2.7c-0.6,0.5-1.1,1.2-2,1c-0.9-0.2-3.1-2.2-3.1-2.2s-1.4-2.1-2.4-3.1
	c-1-1-1.5-2.7-2.3-3.7c-0.8-1-1.7-0.8-1.8-2.1c-0.1-1.3-0.2-2-1.2-2.4c-1-0.4-1.6-1.3-2-1.6c-0.4-0.3,0.3-0.5-1-1.3
	c-1.3-0.8-2.1-1.4-2.1-1.4L462.7,244.6z M480.4,264.5c0,0,1.9-0.8,2.8-0.4c0.9,0.4,1.8,1.6,2.7,1.7c0.9,0.1,2.2-0.5,2.9-0.4
	c0.7,0.1,2.7,0.9,2.7,0.9s0.4,1,1.7,1.1c1.3,0.1,2,1,0.9,1c-1.1,0-3.2-0.5-4.3-0.5c-1.1,0-2-1.2-3.1-1.1c-1.1,0.1-1.2,1.1-2.8,0.4
	c-1.6-0.7-4.2-0.6-4.4-1.2C479.3,265.4,480.4,264.5,480.4,264.5z M485.6,220.6c0,0-1.3,1.1-0.1,1.6c1.2,0.5,2.2,0.4,2.6-0.1
	c0.4-0.5,1.2-1.4,0.8-1.8c-0.4-0.4-1-0.4-1-0.4L485.6,220.6z M505.2,223.1c0,0,0.1,0.6-0.5,2c-0.6,1.4-1.2,1.1-1,2.4
	c0.2,1.3,1.2,2.1,1.2,2.1l1.3-1.4c0,0,1.4-0.6,1.6-1.7c0.2-1.1,0.8-1.1,0.4-2c-0.4-0.9,0.1-1-0.7-1.3
	C506.7,222.9,505.2,223.1,505.2,223.1z M505.9,229.6c-0.2,0.8-0.1,1.1,0.2,1.2c0.3,0.1,0.8-0.4,0.8-0.6c0-0.2-0.4-0.6-0.4-0.6
	l-0.4,0H505.9z M505.1,231.4c0,0,1,0,1.3,0.4c0.3,0.3,0.4,0.8,0.2,1.2c-0.1,0.5-0.2,1.6-0.7,1c-0.4-0.6-0.4-0.8-0.7-1.3
	S505.1,231.4,505.1,231.4z M510.8,240.9c0,0,1.3-1.1,1.6-1.4c0.3-0.3,1-0.6,1.3-0.8c0.3-0.2,0.8-0.4,1,0c0.1,0.4,0,1.1,0.3,1.6
	c0.3,0.5,0.2,1.7-0.2,1.8c-0.4,0.2-1.5-0.2-1.2,0.8c0.3,0.9,0.7,1.6-0.4,1.6c-1.1,0.1-2.4-0.6-2.3-1.4c0.1-0.8,0.4-1.3,0.2-1.6
	C510.8,241.3,510.8,240.9,510.8,240.9z M510.6,240.2c0,0-0.2,0.2-0.6,0.7c-0.4,0.6-1.4,0.5-1.7,0.7c-0.3,0.2-0.8-0.8-0.3-1
	c0.5-0.2,1.1-0.4,1.3-0.8c0.2-0.4,0.8-0.4,1-0.4C510.5,239.5,510.6,240.2,510.6,240.2z M511.6,233.3c0,0,1,1.2,1.2,1.5
	c0.2,0.4,1.3,0.9,1.2,0.1c-0.1-0.8-0.4-1.2-0.7-1.7c-0.3-0.4-0.8-1.2-1-1.1C511.9,232.2,511.6,233.3,511.6,233.3z M509.5,234.2
	c0,0,0.8,0.1,0.5,1c-0.3,0.9-0.6,1.5-0.9,1.2c-0.4-0.2,0.2-0.3-0.5-1c-0.7-0.6-0.1-1.3,0-1.3H509.5z M507.6,230.6
	c0,0-0.1,0.5,0.2,0.6c0.3,0.1,1.4-0.3,1.1-0.4C508.6,230.7,507.6,230.6,507.6,230.6z M509,231.6c0,0,0.6,1.3,1,1
	c0.4-0.3,0.6-0.9,0.2-0.9C509.7,231.7,509,231.6,509,231.6z M509.6,233.2c0,0,0.2,0.7,0.8,0.7c0.6,0,0.3-0.9,0.3-0.9L509.6,233.2z
	 M507.3,232.8c0,0-0.3,0.5,0.3,0.6c0.5,0.2,0.9-0.2,0.9-0.2s0.5-0.6,0.1-0.5C508.2,232.8,507.3,232.8,507.3,232.8z M510.1,230.9
	c0,0,0.2,0.3,0.4,0.2c0.2-0.2,1.2-0.2,1.2-0.2l-1-0.5L510.1,230.9z M503.6,236c-0.1,0.2-1.7,1.4-1.7,1.7c-0.1,0.3-1.1,1.5-1.7,1.8
	c-0.6,0.3-1,0.3-0.7-0.1c0.3-0.3,1.5-1.7,1.9-2c0.4-0.3,0.9-1,1.1-1.2C502.7,236.1,503.6,236,503.6,236z M504.4,213.4l0.1,1.9l1.2,1
	c0,0,0.1-2.8,0.3-2.8c0.3,0,1-1,1-1.3c0.1-0.4-0.6-1.8-0.6-1.8s-1,1-1.2,1.3C505.1,211.9,504.4,213.4,504.4,213.4z M522.2,194.9
	c0,0-1.6,0.1-1.8,0.7c-0.2,0.7,0.9,0.9,0.9,0.9l0.2-0.4l0.6,1.2c0,0-0.9-0.1-0.7,1.1c0.2,1.1,0.2,2,0.9,2s1-0.7,1.1-1.5
	c0.1-0.8,0-1.2,0.5-1.5c0.5-0.3,1-0.5,0.5-1.2c-0.6-0.8-0.8-0.5-1.2-0.6C522.9,195.3,522.2,194.9,522.2,194.9z M522.3,193.9
	c0,0,0.4,0.8,1.3,0.8c0.9,0,1.4-0.5,1.4-0.5l1.4,0c0,0-0.6,0.4-0.9,0.7c-0.4,0.3-0.6,2.4-0.3,2.3c0.3-0.2,0.8-0.9,1.4-1.3
	c0.6-0.4,1.2-1.2,1.2-1.2s-0.8,1.4,0,1.3c0.8-0.1,1.4-0.7,1.8-0.8c0.4-0.1,2.3-0.6,2.3-0.6l0.6-1.1l0.3-0.5c0,0,0.7,0.3,1.4,0.4
	c0.8,0,1.9-0.7,1.9-0.7s1.6-0.5,2.1-0.6c0.5-0.2,1.2-0.5,1.2-0.8c0-0.3-0.3-1.1-0.2-1.4c0.1-0.4,0.4-1,0.5-1.5
	c0.2-0.5,0.5-0.8,0.3-1.1c-0.2-0.4-0.4-1.2-0.4-1.2s1.1,0,1.3-0.6c0.2-0.6,0.6-1.3,0.7-1.8c0-0.5,0.3-0.8,0-1.4
	c-0.3-0.6-0.3-1.1-0.5-1.5c-0.2-0.4,0.5-0.6-0.6-1c-1.1-0.4-1.6-0.5-2.2,1c-0.6,1.5-0.4,2.4-0.6,3.4c-0.2,1-0.3,1.3-0.7,1.7
	c-0.4,0.4-0.1,0.1-1,0.6c-0.9,0.5,0.2,0.3-1,1.4c-1.2,1.1-1.5,1-2,1.1c-0.5,0.1-1.1,0.7-1.3,0.9c-0.2,0.2,0.1,1.1-0.5,1.4
	c-0.6,0.4-1.2-0.3-1.5-0.3c-0.3,0-1.9,0.4-2.4,0.5c-0.5,0-1,0-1.6,0.2c-0.7,0.2-1,0.6-1.6,1.1C523.5,193.4,522.3,193.9,522.3,193.9z
	 M537.7,177.9c0,0-0.5,0.9-0.1,0.9c0.5,0,0.4-0.6,0.4-0.6L537.7,177.9z M538.6,177.2c0,0-0.2,0.5,0.4,0.7c0.6,0.2,1.6-0.4,1.6-0.4
	s0.2-0.1,1.3,0.6c1.1,0.7,1.8,0.6,2.1,0.3c0.3-0.3,0.4-1.5,1-1.6c0.6-0.1,1.6-0.1,2.1-0.7c0.5-0.6,0.9-0.9,0.5-1.2
	c-0.4-0.4-0.6-0.4-1.1-0.4c-0.5,0-1.3-0.6-1.9-0.6c-0.6,0-1.5-0.5-1.9-0.9c-0.4-0.5-0.8-1.6-1.2-1.6c-0.4,0-1.2,0.1-0.9,0.9
	c0.3,0.8,0.2,1.6-0.2,2.3c-0.3,0.7,0.2,1-0.6,1.6c-0.8,0.6-1.5,0.4-1.5,0.4L538.6,177.2z M540.5,157.1c0.2,0.5,1.2,2.2,1.3,2.7
	c0.1,0.6-0.9,1.4-0.9,2.5c0,1.1-0.5,3-0.3,3.5c0.2,0.6,0.3,2.4,0.5,3.1c0.2,0.7,1.6,0.8,1.7-0.3c0-1-0.9-1.2-0.6-2.2
	c0.3-1.1,0.3-2.5,0.8-3.1c0.5-0.6,1.2,0.5,1.8,0.4c0.6-0.1,0.2-1,0.2-1s-1.1-0.9-1-2.8c0.1-1.9-1.1-3-1-4.1c0.2-1.1,0.1-2.5-0.2-3.1
	c-0.3-0.7-0.8-0.6-0.8,0.1c0,0.6-0.6,1.7-0.8,1.8c-0.3,0.1-0.4,0.8-0.4,1c0,0.2,0.1,1.1,0.1,1.1L540.5,157.1z M489.6,249.7
	c0,0,0.1,1.6-0.3,1.6c-0.4,0-1.7,0.3-2.3,0.1c-0.6-0.2-1.5,0.1-1.5,0.7c0,0.6-0.2,2.1,0.2,2.7c0.4,0.6,1.5,2.3,1.5,2.3
	s0.3,0.7,1.2,1.7c0.9,1,1.3,0.4,1.6,0.4c0.3,0,1.3,0.5,1.3,0.5l2-0.3c0,0,0,1.3,1.8,1.2c1.8-0.1,2.3-0.7,2.6-1.3
	c0.3-0.6,0.6-2.7,0.6-2.7l1.7-2.1c0,0,0.2-1.9,0.6-1.8c0.4,0.1,1.5,0,1.5,0s-1.2-0.7-1.2-1.2c0-0.5-0.9-2-0.9-2l0.6-2.7
	c0,0,1.2-0.5,0.5-2c-0.7-1.5,0.1-1.9-1.3-2.2c-1.4-0.3-1.1,1.3-1.9,1.8c-0.8,0.5-1.7,0.4-2.6,1.3c-0.9,0.9-0.7,0.8-1.3,1.7
	c-0.6,0.9-1.9,1.2-1.9,1.2L489.6,249.7z M503.3,255.4c0,0-0.2,0-0.6,1.4c-0.4,1.4-1.5,0.5-0.8,2.1c0.7,1.6,1.7,0.7,1.7,0.7l2.2-1.1
	c0,0-0.1,1.1,0.2,1.9c0.3,0.8,0.1,1.7,1.2,1.7c1.1,0,2-0.5,2-0.5s-0.9-1.1-1.1-1.5c-0.2-0.4-1.8-3.1-1.8-3.1s2.5,0,1.9-0.6
	c-0.6-0.6-1.4-0.4-1.7-0.4c-0.3,0-0.3,0.3-1.1,0.4c-0.8,0.1-1.4-1.4-1.4-1.4L503.3,255.4z M504.6,253.2c0,0,1.2,0.3,1.9,0.2
	c0.7-0.1,1.6-0.1,1.9-0.1c0.2,0,1-0.8,0.3-0.8c-0.7,0-1.6,0.1-1.6,0.1l-1-0.4L504.6,253.2z M509.4,253.4c0,0,0.9,0.2,1.5,0.2
	c0.6,0,1.6-0.7,1.8-1c0.2-0.3,0.2-1.2,0-1.2c-0.2,0.1-1,0.7-1.6,1c-0.7,0.3-1.2,0.5-1.2,0.5L509.4,253.4z M319.1,78.5
	c0,0,1.2,1.8,2,2.7c0.8,0.9,1.1,1.6,1.9,1.6c0.8,0,2,1,2,1l-1,0.5c0,0,0.8,1.1,1.8,0.9c1-0.3,2.1,0,1.8,0.1c-0.3,0.1-3.6,1.1-3,1.3
	c0.6,0.1,1.7,0.9,2.2,1.1c0.5,0.1,0.9,0.8,2,1.2c1.1,0.4,1.6-0.9,1.9-1.3c0.4-0.3,0.9-1.4,1.2-1.5c0.3-0.1,0.8,0.2,1.1-0.8
	c0.2-1,0.9-1.7,1.2-2.3c0.3-0.6-0.4-1,1.2-1.2c1.6-0.2,2.6-0.2,2.3-0.9c-0.3-0.7-0.9-0.7-2.5-1.2c-1.7-0.5-0.8-0.5-2.2-1.7
	c-1.4-1.1-2.8-2-3.7-2c-0.9,0-0.5,0.6-1.5,1.4c-0.9,0.8-0.8-0.2-2.1,0c-1.3,0.2-0.5,0.8-1.5,0.4c-1.1-0.4-0.7-1.3-1.5-1.1
	c-0.8,0.1-2.5,0.2-3.2,0.6C318.8,77.7,319.1,78.5,319.1,78.5z M330.8,75c0,0,1.6,1,2.1,2c0.5,1.1,1.4,0.3,1.8,0.4
	c0.4,0.2-0.5,1.1,1.1,1.4c1.6,0.3,3.6,0.3,5,0.3c1.4,0,0.5,0.2,3.6-0.3c3-0.4,1.4-1,1.4-1.2c0-0.2,0.9-1.2,1.4-1
	c0.5,0.2,0.9,0,0.5-0.3c-0.5-0.3-2.9-0.9-3.8-0.9c-0.9,0-0.5-0.1-2.9-0.6c-2.4-0.4-1.5,0-3.2-0.3c-1.8-0.3-2-0.8-3-0.5
	C333.9,74.4,330.8,75,330.8,75z M336.5,83.4c0,0-0.6-0.5,0.8-0.4c1.5,0.1,1.5-0.2,2.5-0.2c1.1,0,0.9-0.1,0.9,0.8
	c0.1,0.9,0.9,0.7,1.7,0.8c0.8,0.1,0.5,0.3-0.5,1c-1,0.7-1.1,0.6-1.7,0.9c-0.6,0.3-0.4-0.6-0.4-0.6s-1.1-0.3-1.8-0.1
	c-0.8,0.2-1.7,0-1.3-0.4c0.4-0.4,1.2-0.6,1.1-1c-0.1-0.4-0.8-0.3-1.1-0.4C336.5,83.8,336.5,83.4,336.5,83.4z M383.1,112.9
	c0,0-0.3,1.4,1.1,1.6c1.3,0.2,2.4-1.2,2.4-1.2s-0.7-0.7-1.2-0.7c-0.5,0-0.8-0.3-1.1-0.3C383.8,112.3,383.1,112.9,383.1,112.9z
	 M400.1,109.8c0,0,0.5,1.5,1.2,1.7c0.8,0.2,1.6,0.1,1.6,0.1s0.6-0.5,0.1-1.1c-0.5-0.6-0.6-1.3-1.2-1.3
	C401.3,109.2,400.1,109.8,400.1,109.8z M398.6,108.4c0,0-0.9,0.2-1.4,0.4c-0.6,0.2-1.4,0.3-2.6,0.4c-1.1,0.1-2.6-1-2.4-1.3
	c0.2-0.3,0.3-0.7-0.6-1.1c-0.9-0.4-2.3-0.1-2.7-0.8c-0.5-0.6,0.1-0.8,0.6-1.5c0.6-0.7,1.2-1.2,1.2-1.7c0-0.5-0.2-1.5,1.1-2.1
	c1.2-0.6,2-1.2,2-1.2l-1-0.4c0,0,2-1.1,2.2-1.4c0.2-0.3,0.6-1.8,1-2.1c0.4-0.3,1.2-0.2,0.7-0.8c-0.5-0.6,0.4-1,0.7-0.9
	c0.3,0.1,2.3-1.2,3-1.6c0.8-0.4,3.1-0.9,4.1-1.1c1-0.3,2.4-0.9,3.4-0.9c1,0,3.6-0.7,4.5-1.1c1-0.4,5.1-1.8,5.5-0.5
	c0.4,1.2-1.1,1-2.7,1.6c-1.6,0.6-2.6,1-3.6,1.4c-1,0.5-2.7,0.7-3.9,1.1c-1.1,0.4-2.6,2-4.3,2.8c-1.7,0.7-2.3,0.6-2.3,0.6
	s0,0.3-0.8,1.1c-0.8,0.9-1.9,1.3-2.1,1.9c-0.2,0.6-1.3,1.4-2.1,2.3c-0.8,0.9-1.7,1.2-1.3,2.8c0.4,1.6,1.4,2.2,1.6,2.6
	C396.6,107.5,398.6,108.4,398.6,108.4z M460,77.3c0,0-0.9-0.2-1.3-0.5c-0.4-0.3-0.6-0.8-1.1-0.6c-0.5,0.2-1.6,0.3-1.4-0.2
	c0.2-0.5,1.2-1.1,1.8-1.3c0.5-0.3,0.9-0.8,1-1.2c0.1-0.4,0.1-1.3,0.7-1.3c0.6,0.1,2.1,0.4,2.4,0c0.3-0.4,0.2-1.1,0.9-0.9
	c0.7,0.2,1.6,1.2,2.2,1.7c0.5,0.5,1.1,0.5,1.4,0.6c0.3,0.1-0.1,0.5-0.3,1.1c-0.3,0.6-0.3,1.1-0.1,1.4c0.2,0.3,0.3-0.1,0.7,0.5
	c0.4,0.6,0.8,0.4,1.2-0.1s1.2-0.9,1.5-0.5c0.3,0.4,0,0.6,0.4,0.9c0.4,0.3,1.5,0.9,1.4,1.1c-0.2,0.2-0.6,0.2-0.8,0.5
	c-0.2,0.3-0.3,1-0.3,1.3c0.1,0.3,0.3,0.7,0.1,0.9c-0.2,0.2,0.3,0.5-0.5,0.6c-0.8,0.1-1.9,0.3-3,0.3c-1,0-0.8-0.6-1.9-0.7
	c-1.1,0-2.2,0.2-2.7-0.1c-0.5-0.3-0.1-0.9-0.9-1.1c-0.8-0.3-2.1,0.2-2.7-0.6c-0.6-0.8,0.5-0.9,0.5-0.9l1-0.5L460,77.3z M469.4,83.8
	c0.2,0,1.5,1.4,2.3,0.9c0.8-0.5,1.5-0.9,2.7-0.9c1.2-0.1,2.4,0.8,4,0c1.6-0.9,2.2-1.7,1.4-2.1c-0.8-0.4-1.7-0.7-3-0.9
	c-1.3-0.3-1.6,0-1.6-0.8c0-0.7,0.3-0.9-0.9-0.6c-1.2,0.2-1.7,0.3-2.1,0.3c-0.3,0-0.4,1-1.1,2.1C470.3,82.8,469.4,83.8,469.4,83.8z
	 M490.8,96.9c0,0,1.7-0.3,2.1-0.3c0.3,0.1,0.6,0.3,0.6,0.3s0.1,0.2-0.7,0.7c-0.8,0.5-1.2,0.9-1.7,0.4
	C490.5,97.6,490.8,96.9,490.8,96.9z M532.9,93.8c0,0,1.7,1.9,2.5,2.2c0.8,0.3,0.9-0.7,2.1-0.7c1.2,0,1.3,0,2.6,0.1
	c1.3,0.2,2.7,0.5,2.1-0.2c-0.6-0.6-1-1.1-0.9-1.7c0.2-0.5,0.7,0.2,0.6-1c-0.1-1.2,0.1-1.1-0.7-1.4c-0.8-0.3-1.7,0.4-1.7,0.7
	c0,0.3,0.5,0.7-0.5,1c-1,0.2-0.6-0.2-1.3-0.6c-0.7-0.4-1.1-0.8-1.4-1.1c-0.2-0.3-0.5-0.2-0.5-0.2s-1,0.8-1.6,0.9
	c-0.5,0.1-0.8,0.9-0.8,0.9L532.9,93.8z M542,94.2c0,0,0.5,0.3,1.1,0.6c0.7,0.2,1.6,0.5,2.2,0.1c0.6-0.5,0.8-1.3,0.9-1.6
	c0-0.2-1.1-0.8-1.1-0.8s-0.7,0.1-0.9-0.1c-0.2-0.2-0.7-0.8-1.2-0.4c-0.6,0.4-0.4,0.9-0.4,1c0.1,0.1-0.2,0.6-0.3,0.7
	C542.2,93.8,542,94.2,542,94.2z M541.3,98.5c0,0,1.3,0.2,1.7,0.7c0.4,0.6,1,0.7,1,1.3c0,0.7-0.1,0.5-1.2,0.4c-1.1-0.2-1.3-0.4-2-0.4
	c-0.7,0-1.6-0.5-1.6-0.8c0-0.3,0.7-1,0.8-1C540.3,98.9,541.3,98.5,541.3,98.5z M548.1,94.1c0,0,0.7,1,1.4,1c0.7,0,1.4,0,1.6,0.3
	c0.2,0.3,0.7,0.8,1.5,0.7c0.8-0.1,2.7-0.2,3.1-0.6c0.4-0.3,0.3-0.9,0.3-0.9s-1,0.2-1.7-0.2c-0.7-0.4-1.1-0.6-1.8-0.6
	c-0.7,0,0-0.4-1.6-0.4c-1.6,0.1-2.1-0.1-2.3-0.1C548.4,93.4,548.1,94.1,548.1,94.1z M538.3,98.1c0,0,0.5,0.5,0.6,0.5
	c0.1,0,1.2,0,1-0.4c-0.2-0.4-0.4-0.6-0.4-0.6l-0.9,0L538.3,98.1z M603.2,108.3c0,0,1.2,0.4,2.4-0.1s2.8-0.7,3.7-0.7
	c0.9,0,0-1.4-1.3-1.6c-1.3-0.2-4.2,0.9-4.2,0.9L603.2,108.3z M504.2,268.4c0.2-0.1,0.8-0.5,1.9-0.1c1.1,0.4,1.7,0.2,2.3,0
	c0.6-0.2-1.2,1-1.5,1c-0.4,0.1-1.4,0.3-1.7,0.3c-0.4,0-1.3-0.9-1.3-0.9L504.2,268.4z M510.3,270.8c0,0,1.8-1.2,2.6-1.7
	c0.7-0.5,0.8-0.6,1.4-0.6c0.7,0.1,2.4,0,2.2,0.1c-0.2,0.1-1.5,0.8-2.3,1c-0.8,0.2-1.1,0.6-1.9,1.2c-0.9,0.6-1.5,1.3-1.9,1.1
	C510,271.7,510.3,270.8,510.3,270.8z M505.4,271.1c0,0.2-0.9-0.3-1.2-0.5c-0.3-0.3-1.3-0.4-1.7-0.3c-0.4,0.1,0.1,0.3,0.5,0.6
	c0.4,0.3,0.5,0.3,1,0.5c0.5,0.2,1,0.6,1.2,0.4C505.5,271.5,505.4,270.9,505.4,271.1z M496.6,268.1c0,0,0.9,0.5,1.5,0.6
	c0.6,0.2-0.3-0.7-0.5-0.8C497.4,267.9,496.6,268.1,496.6,268.1z M498.7,269c0.4,0,1.6-0.2,1.4-0.5c-0.3-0.3-0.6-0.9-0.9-0.8
	C498.9,267.8,498.7,269,498.7,269z M500.3,268.3c0,0,0.9,0.8,1.6,0.7c0.7-0.1,1-0.6,0.6-0.7c-0.4-0.2-1-0.3-1.3-0.2
	C501,268.1,500.3,268.3,500.3,268.3z M514.5,259.6c0.1,0.3,1.1,1.2,1.6,1.2c0.5,0,0.8-1.2,0.5-1.4
	C516.2,259.1,514.5,259.6,514.5,259.6z M517.3,259.1c0,0,1.4,0.4,1.8,0.5c0.5,0.1,2.1,0.2,2.1-0.2c-0.1-0.4-1.5-0.6-1.5-0.6
	L517.3,259.1z M517.5,255.3c-0.5-0.4-0.4-1.7-0.1-1.7c0.3,0,1-0.8,1-0.8s0.6,0.8,0.2,0.9c-0.4,0.1-1.1,0.1-0.9,0.6
	C518,254.8,517.5,255.3,517.5,255.3z M516.6,253.3c0-0.6,0.2-1.1,0.2-1.4c0-0.3,0.5-1,0.5-1s0,1.1-0.1,1.5
	C517.1,252.8,516.6,253.3,516.6,253.3z M517.7,251.7c0-0.3-0.1-1.1,0.3-1.3c0.4-0.2,0.6-0.8,0.6-0.8s0.1,0.8-0.1,1
	C518.2,250.9,517.7,251.7,517.7,251.7z M504.1,260.4c0,0,0.1,1.1-0.2,1.6c-0.3,0.5-1.6,1.8-0.5,1.6c1.1-0.2,2.2-0.3,2.2-0.7
	c0.1-0.4,0-0.9-0.4-1.7C505,260.4,504.1,260.4,504.1,260.4z M527.6,258.3c0.5-0.5,0.8-1.6,0.6-2.3c-0.2-0.7-0.7-0.8-1.2-0.7
	c-0.5,0.1-0.6-0.4-1.1-0.5c-0.5-0.1-2,0.3-2.4,0.6c-0.4,0.3-1.2,0.6-1.2,0.6s0.8,0.2,1.3,0.8c0.6,0.5,1,1.2,1.7,1.4
	c0.6,0.2,1.2-0.1,1.2-0.1L527.6,258.3z M526.1,258.9c0,0,0.2-0.1,0.8-0.1c0.6,0,1.5-0.7,1.7-0.4c0.2,0.4,0,1.2,1.2,1.3
	c1.2,0.1,1-0.8,2-1.3c1-0.5,1.3-0.2,1.6-0.8s0.5-0.6,1.5-0.7c0.9-0.1,2.3,1,3.4,1.3c1.1,0.3,5.4,1.3,6.5,2c1.1,0.7,1.7,1.1,2.7,2.2
	c0.9,1.2,1.4,1.2,1.8,1.6c0.4,0.4,0.6,0.4,1.3,0.5c0.7,0.1,1,0.4,0.6,0.6c-0.4,0.2-1.3,0-1.2,0.7c0.1,0.7,0.4,1.1,0.7,1.7
	c0.3,0.5,0.7,1.4,1.4,1.6c0.7,0.2,0.8,1.2,1.7,1.4c0.9,0.2,2.7,1,2.2,1.6c-0.5,0.6-1.3-0.1-2.2-0.3c-0.9-0.3-1.5-0.3-2.2-0.7
	c-0.7-0.4-1.2-0.9-1.7-1.2c-0.5-0.3-1.4-2.1-2-2c-0.6,0.1-1.8-0.7-2-0.7c-0.2-0.1-0.3,0.4-0.7,0.5c-0.5,0.1-1.4,0.3-1.6,0.3
	c-0.2,0,1.3,1.9-0.1,1.9c-1.3,0-2.2,0.4-3.2,0.1c-1-0.3-2.4-2.2-2.8-2.2c-0.3,0.1-1.1,0.3-1.6,0.4c-0.4,0.2-1.9,0.2-1.9,0.2
	s1.5-1.6,1.7-1.8c0.2-0.2,0.6-0.7-0.2-1.7c-0.8-1-1.5-1.9-2.8-2.2c-1.3-0.3-2.2-0.8-3.1-0.8c-0.9,0-1.2,0-1.2,0.2
	c0,0.2-1.4,0.5-1.4,0.4c0.1-0.2,1.1-1.1-0.1-1.2c-1.1-0.1-1.7-0.4-1.6-0.8C525.4,259.8,526.1,258.9,526.1,258.9z M552,263.5
	c0,0,1.7,1.9,2.7,1.8c1-0.1,1.9-0.3,2.3-0.9c0.5-0.6,0.8-0.2,1.5-1.2c0.6-1,0.3-1.8,0.3-1.8s-1.2-0.1-1.4,0.8
	c-0.2,0.9-0.4,1.6-2,1.4c-1.7-0.2-2.6-0.5-2.6-0.5L552,263.5z M527.6,264.4c0,0,0.2,1.2,0.9,1.2c0.7,0,0.2-1.2,0.2-1.2H527.6z
	 M523.4,266.2c0,0-1.3,0.8-0.6,1.3c0.7,0.5,1.6-0.9,1.6-0.9L523.4,266.2z M513.5,267.2c0,0,0.6,1,1.5,0.8c0.9-0.2,0.5-1.1,0.5-1.1
	L513.5,267.2z M494.2,301.9c-0.2-0.5-0.6-1-0.9-1.7c-0.3-0.7-0.1-1.8,0.1-1.5c0.1,0.3,1,0.7,1.1,0.3c0.1-0.4-0.5-1.2-0.8-1.6
	c-0.3-0.4-0.8-0.6-0.5-1.7c0.3-1.1,0.3-1.3,0.5-2.1c0.2-0.8,0.4-1.4,0.8-1.6c0.4-0.1,0.6-0.3,1.5-0.8c0.9-0.5,1.8-1.4,2.5-1.7
	c0.7-0.3,0.7-0.2,2.2-0.3c1.6-0.1,2.2-0.9,2.2-0.9s1.7-0.4,2.3-0.5c0.6-0.1,1.1-0.6,1.7-1.1c0.6-0.5,1.1-1,1.3-1.8
	c0.1-0.7-0.1-1.5,0.2-2.2c0.3-0.6,0.9-1.2,0.9-1.2s0.2,2.1,0.7,1.9c0.5-0.2,0.7-1.4,0.7-1.4s0.3-1,0.6-1.2c0.3-0.2,0.3-0.5,1.4-1.3
	c1.1-0.8,1.8-1.6,2.5-1.9c0.7-0.3,1.8,0.3,2,0.5c0.2,0.2,0.3,0.9,0.9,1.1c0.6,0.2,1.8,0.2,2.2,0.1c0.3-0.1-0.7-0.7,0.9-2
	c1.6-1.4,0.6-1.8,1.2-2.2c0.7-0.4,1-0.3,1.7-0.4c0.7-0.1,1.4-0.1,1.4-0.1s-0.3-1.2,0.3-1.4c0.6-0.2-0.2,0.2,1,0.6
	c1.2,0.4,1.2,0.7,1.9,0.9c0.7,0.2,0.4,0.2,1.5,0.2s2.2-0.2,2.4,0.4c0.3,0.6-0.4,1.2-1.1,1.8c-0.7,0.5-0.6,1.1-0.9,1.9
	c-0.3,0.8,0.4,1,1,1.6c0.7,0.5,2.6,2.2,4.1,2.6c1.5,0.5,1,1.9,2.8,1.2c1.8-0.7,1.9-2.7,2-4.1c0.1-1.4,0-3.6,0.1-4.2
	c0.1-0.6,0.4-1.4,0.6-2.2c0.2-0.8,0.9-2,0.9-2s1,2.6,1.3,3.2c0.3,0.7,0.3,3,0.5,3.4c0.2,0.5,1-0.4,1.6-0.4c0.6,0,0.8,1.1,0.9,1.3
	c0.1,0.2,0,0.2,0.4,1.2c0.4,1,0.4,1.6,0.8,2.4c0.3,0.9,0.7,1.1,0.8,1.7c0.1,0.6-0.5,0.8,0.5,1.6c1,0.8,1.4,0.8,1.9,1.1
	c0.5,0.3,2.7,2.1,3,3.1c0.3,1-0.1,1.5,0.6,1.8c0.7,0.3,1.7-0.1,1.9,0.6c0.1,0.7,0.4,2.3,1,2.2c0.6-0.1,1.3,1,2,2.2
	c0.7,1.1,1,1.2,1.1,3c0.1,1.8,0.3,0.8,0.5,2.3c0.3,1.5,0.4,0.9-0.3,3.3c-0.7,2.4-0.3,3.2-0.8,4.2c-0.5,1-1.3,1.5-1.3,1.5
	s-1.2,0.1-1.3,1c-0.1,0.9-0.3,0.1-0.8,1.9c-0.5,1.8,0.3,2-0.7,2.9c-1,0.9-1.4,1.9-1.8,2.5c-0.4,0.6-0.8,0.8-1.6,1.1
	c-0.9,0.3-0.6,1.2-2.4,2.2c-1.7,1-1.5-0.9-2.5-0.9c-0.9,0-0.3-1.2-1.6-0.7c-1.3,0.5-1.4,1.4-2.6,1.3c-1.2-0.1-1.3-0.7-3-1.1
	c-1.7-0.3-2.4-1-2.8-1.9c-0.4-0.9,0.2-1.3-1.3-2.6c-1.5-1.3-0.2-0.9-0.9-2c-0.7-1.1-1.4-1.3-1.3-1c0.1,0.3,0.1,0.6-0.3,0.6
	c-0.4,0-0.5-1.1,0-1.3c0.5-0.2,1.1-1.5,0.6-2c-0.5-0.5-0.7,0.5-1.2,0.9c-0.5,0.4-1.5,0.9-2,1.6c-0.5,0.7-0.7,1.6-1.1,1.1
	c-0.4-0.5-1.1-2.1-1.3-2.6s0.2-1.8-1.2-2.3c-1.5-0.5-2.2-0.3-3.5-0.7c-1.3-0.4-1.5-0.7-2.6-0.6c-1.2,0.1-3.1,1-4.3,1.1
	c-1.3,0.1-2.3-0.1-3.2,0c-0.9,0.1-0.4,1.3-1.7,1.5c-1.3,0.2-1.2,0.5-1.5,1.5c-0.3,0.9-0.7,0.8-2.6,0.5c-1.9-0.3-4.5,0.1-4.7,0.3
	c-0.3,0.3-0.9,1.1-2.8,1.7c-2,0.6-3.7-1.1-3.7-1.1s-1.2,0.3-1.4-0.3c-0.2-0.6-0.4-1.1,0.2-1.3c0.6-0.1,0.9-0.3,0.9-0.8
	s0.1-2.8-0.1-3.1c-0.1-0.3-0.4-1.2-0.8-1.6c-0.4-0.4-0.3-2.6-0.3-2.6s-0.1-1.1-0.5-1.3c-0.5-0.3-0.9-1.1-0.9-1.1V301.9z
	 M532.6,315.7c0.1,0,1.1,0.5,1.1,0.5s0.4-0.4-0.2-0.5C532.9,315.5,532.6,315.7,532.6,315.7z M546.6,327c0.6-0.1,0.8,0.5,1.6,0.8
	c0.9,0.3,0.6-0.2,1.1-0.2c0.6-0.1,1.2-0.3,1.4-0.4c0.2-0.1,0.8-0.3,1.1,0.3c0.3,0.6,0.5,0.8,0.1,1.9c-0.4,1.1-0.6,1-1.2,2.2
	c-0.6,1.2-0.9,1.7-1.6,1.5c-0.7-0.2-1.2-1.4-1.7-1.8c-0.5-0.4-0.9-1.3-1.2-2.2c-0.3-0.9-0.6-1.3-0.4-1.6
	C546,327.1,546.6,327,546.6,327z M582.4,337.6c0,0,0.3-0.8,0.7-1c0.4-0.2,1.7-2.1,1.7-2.1s1-0.3,2.1-1.1c1.1-0.8,1.7-1.4,2.6-2.4
	c0.9-1,1-1.6,1.5-2c0.5-0.4,0.6-1.5,1.7-2.2c1.1-0.7,1.7,1,1.7,1l0.7-0.3c0,0,0.8,1.9-0.3,2.9c-1.1,1-1.3,1.9-2.1,2.4
	c-0.8,0.5-1.6,1.3-2,1.6c-0.4,0.3,0.7,0.8-0.4,2.3c-1.1,1.5-1.5,1.5-2.9,2c-1.4,0.5-2.3,0.1-2.3,0.1s-1.2-0.7-1.7-0.6
	C582.9,338.3,582.4,337.6,582.4,337.6z M597,325.5l-0.2,2c0,0,0.1,1.4,1,1.1c0.9-0.3,1.6-0.2,1.6-1.5s0.1-1.3,0.6-1.5
	c0.5-0.2,0.4-1.5,0.4-1.5s1.1-0.2,1.8-0.9c0.7-0.7,1.1-2,1.1-2s-0.6-0.7-2-0.3c-1.4,0.4-2.7,0.3-2.7-0.2c0-0.5,0.2-1.5-0.4-1.8
	c-0.6-0.3-1.4,0.3-1.7-0.6c-0.3-0.9-0.3-1.2-0.3-1.2s-0.3-1.2-0.9-1.3c-0.6-0.1-2.3-0.3-2.3-0.3s1.9,1.4,2.3,2.7
	c0.4,1.3,1.2,1.9,1.2,2.5c0,0.6,0.4,1.5,0,2.1c-0.4,0.6-1.2,0.8-1.5,1.2c-0.3,0.4,0.7,1.1,0.7,1.1L597,325.5z M578.5,288.2
	c0,0,0.9,3.3,2,3.5c1.2,0.1,3,0.8,3,0.8s-1.9-1.8-2.6-2.2C580.2,289.9,578.5,288.2,578.5,288.2z M582.5,289.2c0.3,0.5,1.1,0,0.7-0.3
	C582.8,288.7,582.5,289.2,582.5,289.2z M583.3,290.1c0.2,0,1.3,1,1.2,0.2c-0.1-0.8-0.5-0.7-0.5-0.7S583.2,290.1,583.3,290.1z
	 M584.5,291.1c0.3,0.1,1.3,0.1,1-0.2C585.3,290.6,584.5,291.1,584.5,291.1z M586.5,286.4c0,0,0.4,0.4,0.6,0.4
	c0.2-0.1,0.9-0.7,0.5-0.7C587.1,285.9,586.5,286.4,586.5,286.4z M565.8,267.2c0.1,0.1,0.7,1,0.9,1.2c0.3,0.2,1.3,1.1,1.7,0.7
	c0.4-0.4,0.1-0.7-0.1-0.7c-0.2,0-0.5-0.3-0.9-0.6C567.2,267.5,565.7,267.2,565.8,267.2z M517,208.9c0.5,0.7,0.9-0.3,0.9-0.3
	s0.3-0.5,0.2-0.8c-0.1-0.3-0.6,0.6-0.6,0.6L517,208.9z M518.9,206.2c0,0,1.1-0.6,0.8-0.6C519.4,205.5,518.9,206.2,518.9,206.2z
	 M519.9,205.2c0,0,1.3,0.1,1-0.4c-0.4-0.4-1.2-0.3-1.1-0.1L519.9,205.2z M515.9,195.2c0,0-1.2-0.2-1.1,0.2c0.1,0.4,0.8,0.4,0.8,0.4
	L515.9,195.2z M526,190.2c0.2,0.2,1.8,0.6,1.1,0.1C526.4,189.7,526,190.2,526,190.2z M532.2,188.5c0,0,0.5,0.7,0.8,0.3
	c0.3-0.4,0.4-0.8,0.5-1c0.2-0.2-0.4-0.4-0.4-0.2c0.1,0.2-0.5,0.4-0.5,0.4L532.2,188.5z M300.6,153.1c0.1-0.1,0.8-0.4,0.8-0.4
	l-0.4,0.6c0,0-0.6,0.3-0.9,0.5c-0.3,0.2-0.8,0-0.8-0.1c0-0.1,0.1-0.7,0.3-0.7c0.1-0.1,0.8,0.1,0.8,0.1L300.6,153.1z M69.9,114.3
	c0,0-8.3-3.8-10.2-3.4c-1.9,0.3-4.1-0.2-4.8-0.2c-0.7,0-5.4-0.4-6.4-0.9c-1-0.4-1.7,0.7-3,0.2c-1.3-0.4-2.6-2.2-4.9-2.1
	c-2.3,0.1-2.3-0.3-3.3-0.6c-1-0.2-3.1,0.9-3.6,1c-0.4,0.1-4.5,0.8-5.4,1.5c-1,0.7-2.6,3.6-3.4,3.9c-0.9,0.3-3.8,0.7-4.1,1.1
	c-0.3,0.5-0.7,1.5-0.7,1.5s4.6,2,4.7,2.4c0.1,0.4,2.9,1.8,3.1,2.4c0.2,0.7,0.1,1.5,0.1,1.5l-3.2-0.1c0,0,0-1.1-1.1-1
	c-1.1,0.1-5.1,2.3-5.1,2.3s1.3,0.9,1.6,1.3c0.2,0.4,0.1,1.9,3.6,2.1c3.4,0.2,4.8-0.9,4.8-0.9s0.9-1,1.1,0c0.2,1,0.7,2.4,0.4,2.9
	c-0.2,0.4-1.8,0.8-2.4,1c-0.7,0.2-1.6-0.2-2.3-0.2c-0.8,0-2.8,1.5-2.9,1.9c-0.1,0.4-1.3,2.4-1,3.1c0.3,0.7,1.7,0.7,2.3,2.3
	c0.7,1.7,4.2,1.2,4.6,1.8c0.3,0.6,0.8,2.7,1.6,2.8c0.8,0.1,1.8-0.3,1.8-0.3s2,1.1,2.2,0.8c0.2-0.3,0.8-1.3,0.8-1.3s2,0.6,1.7,1.4
	c-0.3,0.9-1.9,4.6-4.8,5.2c-2.9,0.7-3.7,1.3-4.1,1.4c-0.4,0.1-2.3,1.3-2.3,1.3s7-1.6,8.8-2c1.8-0.4,5.9-4.7,6.7-5.4
	c0.8-0.8,2.4-0.9,1.9-1.7c-0.6-0.8-1.7-1.6-0.4-1.8c1.2-0.2,2-0.5,2.7-1.6c0.7-1,2.3-3.2,3.3-2.7c1,0.6-0.8,1.1-2,2.3
	c-1.2,1.2-0.9,1.7,1.1,2.1c2,0.4,2.9-1.4,3.2-1.4c0.3,0,1.2-0.1,1.5-0.8c0.2-0.7,1-1.8,1.4-1.7c0.4,0.1,1.9,1.5,3.1,1.7
	c1.2,0.1,3.3,0.1,5.1,0.8c1.8,0.7,2.1,0.9,3.3,0.8c1.2-0.1,1.9,1,2.5,1.4c0.7,0.5,3,1.9,3.5,2.1c0.4,0.2,3.1,0.1,3.1,0.1
	s1.7,1.2,2,1.8c0.3,0.6-0.1,1.4,0.7,1.4c0.8,0,1.6,0.8,1.6,0.8l0.4,1l1.3,0.8c0,0-0.2,0,0,0.7c0.2,0.7,0.2,0.7,0.7,0.9
	c0.4,0.2,0.7,0.5,1.2,1.5c0.6,1,0.9,2.4,0.9,2.4s1.7,1.3,2,1.3c0.3,0,1.7,0.8,1.5,2.2c-0.1,1.4,0.1,1.8,0.3,2.1
	c0.2,0.3,4.4,1.3,5.8,2.9c1.3,1.6,4.6,2.2,3.4,4c-1.1,1.8-1.9,0.7-1.9,0.7s-0.7-1.3-1.6-1.2c-0.9,0.1-0.6,1.1-0.6,1.1s1.1,4,0.7,6.8
	c-0.4,2.8-0.2,4.3-0.1,5c0.1,0.7,0.1,3.7,0.4,4.9c0.3,1.2,1.7,2.3,2,3.7c0.3,1.3,3,5.2,3.7,5.8c0.7,0.6,4.5,1.1,4.9,2.2
	c0.4,1.1,2.2,4.5,3,5.8c0.8,1.2,2.9,3.1,2.9,3.7c0,0.6-0.7,1.1-0.7,1.1s-1.1,0.7-0.7,1c0.4,0.3,4.8,1.7,5,2.3
	c0.2,0.7-0.6,1.4-0.6,1.8c0,0.3,1.3,1.7,1.8,1.9c0.4,0.2,3.7,1.9,3.3,1.5c-0.3-0.3-1.8-1.9-1.8-1.9s-1.5-2-1.9-2.6
	c-0.3-0.6-1.5-2.7-1.7-3.3c-0.2-0.7-4.4-6.5-4.4-7.7c0-1.1,3,0.4,3.6,1.9c0.6,1.4,1.3,3.6,2.4,4.5c1.1,0.9,2.7,1.2,2.8,1.7
	c0.1,0.4,1.3,2.6,1.3,2.6s1.3,1.6,2,2.4c0.7,0.9,4.2,4.2,4.3,5.2c0.1,1-1.3,1.3-1.1,1.9c0.2,0.6,1.7,1.6,2.8,2.7
	c1.1,1.1,4.6,2.2,7,3.6c2.4,1.3,4.9,2.3,7,2c2.1-0.3,3.1-1.1,4.6,0c1.5,1.1,0.4,2.2,2.2,2.8c1.8,0.6,3.5,0.7,4.4,1
	c0.9,0.3,3.1,1.1,3.4,1.4c0.3,0.3,3.7,1.5,3.7,1.5s1,1.6,0.6,1.6c-0.4,0-2,0.1-1.3,1.1c0.7,1,2.2,1.9,2.8,1.9c0.6,0,1.8-0.4,1.8-0.4
	s-1.9-3.1-1.8-3.7c0.1-0.6,1.1-2.7,0.8-4.3c-0.3-1.7-1.1-2.7-1.6-2.7c-0.4,0-3.6-0.2-4.1-0.2h-3.3c0,0-0.1-2.2,0.2-3
	c0.3-0.8,1.8-3,2.1-3.3c0.3-0.3-0.1-2,0.2-2.1c0.3-0.1,1.1-1.1,1.1-1.1s-5.6-0.5-6.2,0c-0.7,0.5,0,2.5-1,3.3c-1,0.8-3.6,1.8-4.1,1.9
	c-0.6,0.1-2.4-0.4-3.1-0.7c-0.7-0.2-2.8-3.1-3.6-4.5c-0.8-1.3-1.6-3.9-1-5.2c0.6-1.3,1.8-3.1,1.3-3.4c-0.4-0.3-1-3.2,0.3-4
	c1.3-0.8,3-2.9,4.2-2.7c1.2,0.2,4,0.2,4.6,0.2c0.6,0,3.7,0.2,3.8-0.1c0.1-0.3,0.8-1.5,1.6-1.5c0.8,0,3.2,0,4.3,0.3
	c1.1,0.3,2.3,0.5,3.1,0.6c0.8,0.1,3.2,2.8,3.2,2.8s-1.7,0.7,0.4,2.7c2.1,2,2.4,3.2,2.4,3.2s2.2-1.2,0.9-3.8
	c-1.3-2.6-4.2-5.4-2.5-6.9c1.7-1.5,2.1-2.8,2.9-3.3c0.8-0.5,0.8-1.3,1.8-1.8c1.1-0.5,0.9-0.2,1.8-1c0.9-0.8,0.9-1.3,2-1.7
	c1.1-0.4,1.9-1.3,1.5-2c-0.4-0.7-3.5-4-2.6-4.9c0.9-0.9,1.8-1.8,1.8-1.8s-1.2,2.2,0.2,2.2c1.4,0,1.3-0.8,1.3-0.8l-0.7-1.2
	c0,0,1,0.7,1.5,0.4c0.5-0.2,1.2-1.5,1.2-1.5l0.2-2c0,0,0.9-0.3,0.9-0.6c0-0.3,0.1-0.9,0.1-0.9s0.5,0.4,1.8,0.6
	c1.3,0.2,1.8-0.1,2.3-0.1c0.5,0,0.9-0.6,0.9-0.6s-1.3-0.5-0.5-2c0.8-1.5,2.1-2.7,2.7-3c0.6-0.3,1.1-0.5,1.9-0.5
	c0.8,0,1.8-0.6,1.8-0.8c0-0.1,0.5-0.6,0.5-0.6s0.5,0,1.6-0.1c1.1-0.1,2-0.9,2-0.9l1.6,0.6c0,0-1.1,0-1.4,0c-0.3,0-3.3,1.6-3.2,2.4
	c0,0.8,1.5,1.2,1.8,1.2c0.2,0,1.2-1.5,1.4-1.6c0.2-0.1,2.3-0.7,2.7-0.8c0.4-0.1,2.7-1.1,2.7-1.1l1.4-0.8c0,0,1-0.3,0.7-0.8
	c-0.3-0.5-1.1-0.6-1.1-0.6s0.4-1.1,0-1.4c-0.5-0.3-1.8,1.3-1.8,1.5c0,0.1-0.6,1.3-0.6,1.3l-2.5,0l-1.4-0.8l-1.6-2.2
	c0,0,0.7-1.1,0.6-1.2c-0.1,0-1.6-0.9-1.6-0.9s2.3-0.2,2.2-1.2c-0.1-1-0.9-1.9-1.9-1.6c-1,0.2-4.3,1.4-4.3,1.4l-4.5,3.7
	c0,0,3.2-3.8,3.5-4.1c0.3-0.3,1.4-0.7,2.1-0.8c0.7-0.1,1.1-1.9,1.1-1.9s1.1-0.6,2.8-0.1c1.7,0.5,3.6,0.2,3.6,0.2s4.7-0.4,5-0.3
	c0.4,0,3.2-2.1,3.2-2.1s3.6-1,3.7-1.7c0.1-0.7,0.4-2.2,0.3-2.5c-0.1-0.4-0.6-1.5-1-1.5c-0.3,0-1.3,0.3-1.4,0.3c-0.1,0-0.8-1-0.8-1
	s0.1-1.8,0-1.8c-0.1,0-1.7,0-2.2-0.2c-0.5-0.1-1.9-1.1-2.8-1.5c-0.9-0.5-1.9-1.4-2.1-1.9c-0.2-0.5,0-2,0-2s-0.7-1.9-0.9-1.9
	c-0.1,0-1-1.4-1.1-1.5c-0.2-0.1-1.5-2-2.1-2.5c-0.6-0.6-0.1-1.8-1-1.6c-0.9,0.2-1,1.9-1.1,2.2c-0.1,0.3-1.3,2.4-1.5,2.4
	c-0.1,0-1.5,0.4-1.5,0.4s-1.4-0.5-1.9-0.7c-0.5-0.2-1.6-1-1.6-1s-0.1-2.8-1.2-4.4c-1.1-1.6-2.2-1-2.2-1s-1.8-1.9-2.2-2.2
	c-0.4-0.3-2-1-2-1s-1.8,0.5-2.9,0.4c-1-0.2-2.1-0.4-2.4-0.5c-0.2-0.1-1.3-0.4-1.7-0.1c-0.4,0.3-0.3,1.5-0.2,1.6
	c0,0.1,0.3,2.1,0.1,2.7c-0.2,0.6,0.8,1.1,1.1,1.8c0.3,0.7,0.1,0.7-0.5,1.1c-0.5,0.4-1.7,1.4-1.4,2.3c0.3,0.9,2.7,3.2,3,4
	c0.3,0.8,0.8,2.8-1.3,3.7c-2,0.9-3.5,1.6-3.7,2c-0.2,0.4,2,3.7,1.8,5.4c-0.2,1.7-1.5,2.8-2.1,2.9c-0.6,0.1-4.4-4.1-4.4-4.1
	s0.2-4.6-0.2-5.2c-0.4-0.6-3.3,0.4-5.1-0.4c-1.8-0.8-3.3-1.9-4.9-3c-1.6-1.1-1.6-1.8-3.2-1.8c-1.6,0-3.9,0.5-4,0.1
	c-0.1-0.3,1.7-2.9-1.3-3.8c-3-0.9-2.9,0.4-2.7-2.8c0.2-3.2,3.9-6.5,4.6-7c0.7-0.5,1.9-0.9,2.4-1.2c0.5-0.3-0.4-1.3-0.3-1.3
	c0.1,0,1.7-1.5,2.2-1.5c0.5,0,0.4,0.2,2.6-0.5c2.3-0.7,1.5-2.6,1.7-2.7c0.2-0.2,1.1-1.4,1.6-1.8c0.5-0.4,0-1.3,0-1.3l-0.9-0.7
	c0,0,2.8,0.9,4.4,0.7c1.6-0.2,0.9-0.7,0.9-0.7s0.2,0.3,1.6-0.3c1.4-0.5,2.2-2.1,2.2-2.1s-1.7-2.6-1.4-3c0.2-0.4,1.7-0.9,1.7-1
	c0-0.1-1.4-1.4-1.5-1.4c-0.2,0-3.9-2.2-4.7-2c-0.8,0.2-1,0.9-1,1.1c0,0.2,0.7,0.8,0.6,1.3c-0.1,0.5-0.4,0.8-0.7,1.3
	c-0.3,0.5-1.1,3.2-1.7,3.7c-0.7,0.6-1.4,0.6-1.5,0.6c-0.2-0.1-1.5-2.2-1.5-3c0-0.8,1.1-1,0.1-1.7c-1-0.7-1.6-1.4-1.6-1.4
	s-1,1.3-1.2,1.7c-0.1,0.5,0,0.9-0.2,1c-0.2,0.1-1-0.6-1.1-0.8c-0.1-0.1-0.8-1.8-1.4-2.2c-0.6-0.5-1.9-0.9-1.9-0.9s0.8-0.3,1.2-1
	c0.5-0.8,0.3-1.1,0.3-1.1s-2.1-2-2.3-2.3c-0.2-0.3-2.2-2.4-2.2-2.4s0.5-0.6,0.6-0.7c0.1,0,0.5-0.5,0.5-0.7c-0.1-0.2-0.2-1.3-0.2-1.3
	s2.4,0.3,3.2,0c0.8-0.3,1.7-2,1.9-2.1c0.2-0.2,1-1.4,1-1.4s-2.9-0.3-3.7-0.4c-0.8-0.1-3-0.3-3.7,0c-0.7,0.2-1.8,1.2-1.7,1.5
	c0.1,0.3,0.2,3.3,0.5,3.6c0.3,0.4,0.6,1.4,0.7,1.5c0.1,0.2-0.1,0.6-0.3,0.7c-0.2,0.1-1.7,1.9-1.8,2.9c-0.1,1.1,0.4,2.3,0.8,2.6
	c0.4,0.2,3.4,0.9,3.4,0.9s-0.9,1.7-0.8,1.8c0.2,0.1,0.8,0.3,1,0.5c0.2,0.2,0.1,0.8-0.4,1.2c-0.5,0.4-1.3,0.8-1.8,0.9
	c-0.4,0-1.1,0.7-0.9,1.4c0.2,0.7,0.5,1,0.4,1.1c-0.1,0.1-1,0.1-1.5-0.4c-0.5-0.5,0.1-1.7-0.4-2.2c-0.6-0.5-1.9-0.9-2.4-0.9
	c-0.5,0-1.1,1-1.1,1.2c0,0.2-0.6,1-0.8,1c-0.1,0-3.6,0.1-5.1-0.1c-1.6-0.3-4.4-1.1-5-1.6c-0.7-0.5-0.4-1.7-1.6-1.9
	c-1.3-0.3-4.2,1.1-4.2,1.1s1.6,0.4,2,0.5c0.4,0,2-0.3,2-0.3s-0.5,0.8-1.2,1c-0.7,0.2-1.9,1-2.2,1.5c-0.4,0.4-1,0.3-1.5,0
	c-0.5-0.3-1.8-0.8-2.6-0.8c-0.9,0-6.1,0.7-6.5,0.6c-0.4-0.1-1.4-0.3-1.1-0.9c0.3-0.6,1.9-1.1,1.9-1.1s-1.7-1.8-3-1.7
	c-1.4,0.1-2,0.3-2.3,0.3c-0.3,0-3.6-1.1-4.4-1.5c-0.8-0.4-2.1-1-3.3-1.2c-1.2-0.1-2.3,0.5-2.4,0.5c-0.1,0-1.5,0.4-1.5,0.4
	s0-1.4-0.8-1.7c-0.8-0.2-1.2,1.3-1.3,1.4c-0.1,0.1-1.3,0.2-1.2,0.2c0.1-0.1-2-2.8-3.5-3.1c-1.5-0.3-0.7,1.6-1,1.8
	c-0.3,0.2-1.9,0.8-2.1,0.8c-0.2,0-1.8-0.7-1.7-0.8c0.1-0.1,0-0.6,0-0.6s-2,1.2-2.5,1.4c-0.6,0.2-1.3,0.7-2.6,0.8
	c-1.2,0.1-1-0.6-1-0.6s-1.3,0.4-1.7,0.8c-0.4,0.4-0.5,1.2-0.7,1.4c-0.1,0.2-1.4,0.2-1.5,0.2C70.5,114.5,69.9,114.3,69.9,114.3z
	 M281.3,146.5c0,0,0.9-0.6,1.4-0.5c0.5,0.1,1.3,0.5,1.3,0.8c0,0.4-0.2,0.8-0.2,1.1c0,0.3-0.3,0.8-0.5,0.6s-1.3-1.3-1.3-1.3l-0.7-0.6
	V146.5z"/>
</svg>
