<?xml version="1.0" encoding="utf-8"?>
<!-- Generator: Adobe Illustrator 18.0.0, SVG Export Plug-In . SVG Version: 6.00 Build 0)  -->
<!DOCTYPE svg PUBLIC "-//W3C//DTD SVG 1.1//EN" "http://www.w3.org/Graphics/SVG/1.1/DTD/svg11.dtd">
<svg version="1.1" id="Layer_1" xmlns="http://www.w3.org/2000/svg" xmlns:xlink="http://www.w3.org/1999/xlink" x="0px" y="0px"
	 viewBox="0 0 200 200" enable-background="new 0 0 200 200" xml:space="preserve">
<rect x="-1.6" y="-1" fill="#5B595B" width="203.2" height="201.2"/>
<path fill="#FFFFFF" d="M107.2,38.3c-33.5,0-50.4,24-50.4,44c0,12.1,4.6,22.9,14.4,26.9c1.6,0.7,3.1,0,3.5-1.8
	c0.3-1.2,1.1-4.4,1.4-5.7c0.5-1.8,0.3-2.4-1-3.9c-2.8-3.3-4.7-7.7-4.7-13.8c0-17.8,13.3-33.8,34.7-33.8c18.9,0,29.3,11.6,29.3,27
	c0,20.3-9,37.5-22.3,37.5c-7.4,0-12.9-6.1-11.1-13.6c2.1-8.9,6.2-18.6,6.2-25c0-5.8-3.1-10.6-9.5-10.6c-7.5,0-13.6,7.8-13.6,18.2
	c0,6.7,2.2,11.2,2.2,11.2s-7.7,32.7-9.1,38.4c-2.7,11.4-0.4,25.4-0.2,26.8c0.1,0.8,1.2,1,1.7,0.4c0.7-0.9,9.7-12,12.7-23.1
	c0.9-3.1,5-19.4,5-19.4c2.5,4.7,9.6,8.8,17.2,8.8c22.7,0,38-20.7,38-48.3C151.9,57.7,134.1,38.3,107.2,38.3z"/>
</svg>
