<?xml version="1.0" encoding="utf-8"?>
<!-- Generator: Adobe Illustrator 18.0.0, SVG Export Plug-In . SVG Version: 6.00 Build 0)  -->
<!DOCTYPE svg PUBLIC "-//W3C//DTD SVG 1.1//EN" "http://www.w3.org/Graphics/SVG/1.1/DTD/svg11.dtd">
<svg version="1.1" id="Layer_1" xmlns="http://www.w3.org/2000/svg" xmlns:xlink="http://www.w3.org/1999/xlink" x="0px" y="0px"
	 viewBox="0 0 200 200" enable-background="new 0 0 200 200" xml:space="preserve">
<rect x="-0.6" y="0" fill="#5B595B" width="203.2" height="201.2"/>
<g>
	<path fill="#FFFFFF" d="M42.9,113.4c0,0-4.8,15.8-4.7,16.1c0.1,0.3,1.1,0.9,1.5,0.7s17.3-10.3,17.3-10.3c12.9,4.4,20.5,3,20.9,2.9
		c-1.3-3.8-2.1-9.7-1.2-15.2c5-29.1,34.8-38.1,51.1-36.6c-4.5-21-24.1-38.5-52.3-38.9c-28.6-0.4-52.4,20.6-52.4,45.4
		C23.1,91.9,29.9,104.3,42.9,113.4z M96.8,56c3.8,0,6.8,3,6.8,6.8c0,3.8-3,6.8-6.8,6.8c-3.8,0-6.8-3-6.8-6.8C90,59.1,93,56,96.8,56z
		 M55.6,56c3.8,0,6.8,3,6.8,6.8c0,3.8-3,6.8-6.8,6.8c-3.8,0-6.8-3-6.8-6.8C48.8,59.1,51.9,56,55.6,56z"/>
	<path fill="#FFFFFF" d="M80,112.4c0,21.3,19.1,38.9,45.4,39c5.3,0,13.1-1.3,18.5-3.5c0,0,12.7,7.7,13.4,7.6
		c0.7-0.1,1.1-0.6,1.1-1.1c0-0.5-4-12.5-4-12.5c10.9-8.5,15.4-17.9,15.4-29.9c0-21.2-20.5-37.5-44.4-37.5
		C100.1,74.5,80,91.2,80,112.4z M108.7,104.2c-3.3,0-6-2.7-6-6c0-3.3,2.7-6,6-6s6,2.7,6,6C114.7,101.5,112,104.2,108.7,104.2z
		 M140.8,92.2c3.3,0,6,2.7,6,6c0,3.3-2.7,6-6,6c-3.3,0-6-2.7-6-6C134.8,94.9,137.5,92.2,140.8,92.2z"/>
</g>
</svg>
