<?xml version="1.0" encoding="utf-8"?>
<!-- Generator: Adobe Illustrator 18.0.0, SVG Export Plug-In . SVG Version: 6.00 Build 0)  -->
<!DOCTYPE svg PUBLIC "-//W3C//DTD SVG 1.1//EN" "http://www.w3.org/Graphics/SVG/1.1/DTD/svg11.dtd">
<svg version="1.1" id="Layer_1" xmlns="http://www.w3.org/2000/svg" xmlns:xlink="http://www.w3.org/1999/xlink" x="0px" y="0px"
	 viewBox="0 0 800 800" enable-background="new 0 0 800 800" xml:space="preserve">
<rect x="399.7" y="267" fill="none" stroke="#5B595A" stroke-width="3" width="263.8" height="266.1"/>
<g>
	<path fill="#5B595A" stroke="#5B595A" stroke-width="3" d="M267.2,321.7c-43.4,0-78.6,35.2-78.6,78.6c0,43.4,35.2,78.6,78.6,78.6
		c43.3,0,78.5-35.2,78.6-78.6C345.8,356.9,310.6,321.7,267.2,321.7z"/>
	<path fill="#5B595A" stroke="#5B595A" stroke-width="3" d="M135.4,267v266.1h263.8V267H135.4z M370.7,501.2l-25.5,0.5v-29.8
		c-19.4,21.2-47.2,34.5-78.1,34.5c-58.6,0-106.1-47.5-106.1-106.1c0-58.6,47.5-106.1,106.1-106.1c31,0,58.7,13.4,78.1,34.5v-30.8
		l25.5-0.5V501.2z"/>
</g>
<g>
	<g>
		<path fill="#5B595A" d="M531.5,294.2c-30.9,0-58.7,13.3-78.1,34.5v-30.8l-25.5-0.5v203.8l25.5,0.5v-29.8
			c19.4,21.1,47.1,34.5,78.1,34.5c58.6,0,106.1-47.5,106.1-106.1S590.1,294.2,531.5,294.2z M531.5,478.9
			c-43.4,0-78.6-35.2-78.6-78.6s35.2-78.6,78.6-78.6s78.6,35.2,78.6,78.6S574.9,478.9,531.5,478.9z"/>
	</g>
</g>
</svg>
